<svg xmlns="http://www.w3.org/2000/svg" version="1.1" xmlns:xlink="http://www.w3.org/1999/xlink" xmlns:svgjs="http://svgjs.dev/svgjs" width="1500" height="1500" viewBox="0 0 1500 1500"><rect width="1500" height="1500" fill="#000000"></rect><g transform="matrix(0.6666666666666666,0,0,0.6666666666666666,249.50000000000006,249.50000000000006)"><svg viewBox="0 0 280 280" data-background-color="#111111" preserveAspectRatio="xMidYMid meet" height="1500" width="1500" xmlns="http://www.w3.org/2000/svg" xmlns:xlink="http://www.w3.org/1999/xlink"><g id="tight-bounds" transform="matrix(1,0,0,1,0.13999999999998636,0.13999999999998636)"><svg viewBox="0 0 279.72 279.72" height="279.72" width="279.72"><g><svg viewBox="0 0 279.72 279.72" height="279.72" width="279.72"><g><svg viewBox="0 0 279.72 279.72" height="279.72" width="279.72"><g id="textblocktransform"><svg viewBox="0 0 279.72 279.72" height="279.72" width="279.72" id="textblock"><g><svg viewBox="0 0 279.72 279.72" height="279.72" width="279.72"><g transform="matrix(1,0,0,1,73.92936372216631,73.92999766449647)"><svg viewBox="0 0 131.8612725556674 131.8600046710071" height="131.8600046710071" width="131.8612725556674"><g id="icon-0"><svg xmlns="http://www.w3.org/2000/svg" xmlns:xlink="http://www.w3.org/1999/xlink" version="1.1" x="0" y="0" viewBox="3 3 26.00025 26" enable-background="new 0 0 32 32" xml:space="preserve" height="131.8600046710071" width="131.8612725556674" class="icon-xg-0" data-fill-palette-color="accent" id="xg-0"></svg></g></svg></g><g id="text-0"><path d="M4.512 87.617l18.112 6.037c2.616 0.872 4.399 2.277 5.346 4.215 0.943 1.929 0.995 4.154 0.156 6.673v0c-0.523 1.57-1.33 2.891-2.42 3.964-1.09 1.072-2.382 1.902-3.876 2.487v0l-2.52-3.165c1.215-0.564 2.232-1.248 3.053-2.051 0.823-0.81 1.382-1.66 1.68-2.552v0c0.392-1.176 0.329-2.216-0.188-3.121-0.51-0.902-1.45-1.582-2.82-2.038v0l-14.236-4.745-3.013 9.042-3.77-1.257z" fill="#ffffff" data-fill-palette-color="primary"></path><path d="M19.948 71.656v0c1.063-1.871 2.388-3.299 3.975-4.285 1.587-0.986 3.297-1.486 5.131-1.502 1.834-0.015 3.665 0.497 5.494 1.537v0c1.823 1.036 3.204 2.35 4.141 3.94 0.937 1.59 1.388 3.319 1.352 5.186-0.035 1.868-0.585 3.737-1.648 5.608v0c-1.063 1.871-2.39 3.302-3.98 4.294-1.593 0.998-3.313 1.501-5.158 1.509-1.846 0.008-3.68-0.506-5.504-1.542v0c-1.829-1.04-3.207-2.351-4.132-3.935-0.925-1.583-1.367-3.315-1.324-5.194 0.039-1.874 0.59-3.746 1.653-5.616zM23.127 73.463v0c-0.623 1.095-0.915 2.21-0.878 3.343 0.034 1.139 0.374 2.202 1.02 3.188 0.646 0.986 1.564 1.817 2.754 2.493v0c1.208 0.687 2.4 1.055 3.578 1.106 1.178 0.051 2.265-0.201 3.26-0.755 0.993-0.548 1.801-1.369 2.424-2.465v0c0.623-1.095 0.914-2.207 0.873-3.334-0.041-1.128-0.384-2.184-1.03-3.17-0.646-0.986-1.573-1.822-2.78-2.509v0c-1.19-0.676-2.374-1.04-3.552-1.09-1.178-0.051-2.261 0.195-3.25 0.737-0.99 0.542-1.796 1.361-2.419 2.456z" fill="#ffffff" data-fill-palette-color="primary"></path><path d="M34.08 51.738l8.868 7.812c1.221 1.076 2.467 1.593 3.739 1.551 1.272-0.032 2.41-0.618 3.413-1.758v0c1.162-1.391 1.595-2.892 1.3-4.504-0.3-1.607-1.16-3.036-2.58-4.288v0l0.803-0.912c1.932 1.702 3.253 3.338 3.966 4.909 0.717 1.576 0.919 3.088 0.605 4.536-0.318 1.453-1.059 2.856-2.223 4.208v0c-1.058 1.201-2.21 2.014-3.457 2.441-1.247 0.426-2.528 0.469-3.842 0.128-1.314-0.332-2.592-1.045-3.834-2.139v0l-9.75-8.589zM56.799 57.58l-15.69-13.821 2.991-3.396 15.69 13.822z" fill="#ffffff" data-fill-palette-color="primary"></path><path d="M62.258 25.674l2.5 3.244c-1.236 0.85-2.105 1.842-2.606 2.976-0.501 1.134-0.664 2.296-0.487 3.484 0.171 1.192 0.672 2.328 1.504 3.407v0l-1.089 0.645c-1.426-1.85-2.358-3.616-2.796-5.299-0.438-1.683-0.401-3.247 0.112-4.691 0.516-1.438 1.47-2.694 2.862-3.766zM65.798 49.54l-12.767-16.56 3.584-2.763 12.766 16.56z" fill="#ffffff" data-fill-palette-color="primary"></path><path d="M93.161 32.987l-5.472-10.464c-0.754-1.442-1.743-2.37-2.965-2.784-1.223-0.413-2.531-0.256-3.925 0.474v0c-1.641 0.889-2.634 2.149-2.979 3.782-0.345 1.633-0.074 3.297 0.812 4.993v0l-1.113 0.582c-1.205-2.305-1.847-4.325-1.924-6.06-0.077-1.735 0.314-3.234 1.175-4.499 0.86-1.264 2.105-2.323 3.735-3.175v0c1.442-0.754 2.834-1.113 4.174-1.076 1.338 0.046 2.558 0.453 3.659 1.222 1.095 0.772 2.033 1.903 2.812 3.394v0l6.021 11.514zM79.42 40.172l-9.689-18.53 4.01-2.096 9.689 18.529z" fill="#ffffff" data-fill-palette-color="primary"></path><path d="M102.188 17.221l12.386-3.222c-0.349-1.126-0.862-2.031-1.539-2.713-0.675-0.676-1.492-1.125-2.451-1.347-0.954-0.23-1.974-0.204-3.061 0.079v0c-1.219 0.317-2.207 0.873-2.965 1.668-0.757 0.795-1.259 1.759-1.506 2.893-0.247 1.134-0.195 2.373 0.154 3.717v0c0.377 1.45 0.978 2.638 1.803 3.563 0.818 0.927 1.795 1.556 2.929 1.888 1.126 0.326 2.325 0.324 3.597-0.007v0c2.261-0.588 3.957-1.884 5.09-3.889v0l2.93 1.729c-0.706 1.345-1.692 2.502-2.96 3.472-1.269 0.963-2.78 1.673-4.534 2.129v0c-2.083 0.542-4.011 0.582-5.784 0.122-1.773-0.46-3.291-1.346-4.554-2.657-1.263-1.311-2.158-2.981-2.686-5.012v0c-0.53-2.036-0.563-3.935-0.099-5.695 0.464-1.76 1.358-3.273 2.682-4.539 1.324-1.266 2.988-2.174 4.991-2.724v0c2.386-0.621 4.43-0.632 6.135-0.033 1.699 0.607 3.086 1.72 4.161 3.34 1.067 1.615 1.829 3.665 2.286 6.15v0l-16.193 4.212z" fill="#ffffff" data-fill-palette-color="primary"></path><path d="M143.559 2.491l-8.358 24.298c-0.575 1.63-1.421 2.888-2.536 3.774-1.109 0.879-2.453 1.357-4.031 1.434v0c-0.939 0.046-1.803-0.055-2.592-0.303-0.79-0.255-1.566-0.653-2.329-1.195v0l1.766-3.431c0.979 0.634 1.9 0.93 2.764 0.888v0c0.68-0.033 1.286-0.26 1.817-0.681 0.532-0.421 0.948-1.045 1.249-1.871v0l0.634-1.688-9.657-20.188 4.673-0.228 7.041 15.826 5.039-16.414z" fill="#ffffff" data-fill-palette-color="primary"></path><path d="M189.41 8.217l-3.359 2.412c-0.76-1.235-1.746-2.304-2.959-3.208-1.221-0.899-2.53-1.531-3.926-1.898v0c-1.37-0.36-2.704-0.44-4.004-0.24-1.299 0.201-2.51 0.629-3.633 1.284-1.123 0.655-2.086 1.507-2.89 2.556-0.804 1.049-1.386 2.258-1.746 3.629v0c-0.36 1.37-0.45 2.716-0.27 4.037 0.179 1.329 0.595 2.558 1.249 3.688 0.652 1.136 1.501 2.113 2.546 2.929 1.046 0.817 2.253 1.406 3.623 1.766v0c1.245 0.327 2.599 0.412 4.062 0.255 1.47-0.156 2.852-0.524 4.147-1.106v0l1.767 3.802c-1.069 0.451-2.25 0.792-3.543 1.023-1.299 0.229-2.61 0.327-3.933 0.296-1.321-0.038-2.591-0.217-3.809-0.537v0c-1.976-0.52-3.718-1.351-5.227-2.494-1.502-1.141-2.729-2.503-3.68-4.083-0.957-1.582-1.573-3.297-1.847-5.144-0.273-1.853-0.159-3.732 0.341-5.635v0c0.501-1.903 1.329-3.58 2.484-5.029 1.154-1.443 2.54-2.617 4.158-3.522 1.625-0.904 3.397-1.469 5.316-1.697 1.919-0.228 3.879-0.078 5.881 0.448v0c1.271 0.334 2.483 0.815 3.635 1.442 1.15 0.633 2.212 1.374 3.186 2.221 0.966 0.853 1.776 1.787 2.431 2.805zM180.095 27.092l2.582-9.82 3.922 1.032-2.582 9.819z" fill="#ffffff" data-fill-palette-color="primary"></path><path d="M196.32 24.56l11.292 6.024c0.506-1.065 0.742-2.078 0.707-3.038-0.039-0.955-0.335-1.838-0.89-2.651-0.545-0.816-1.313-1.488-2.305-2.017v0c-1.112-0.593-2.215-0.854-3.31-0.782-1.096 0.072-2.118 0.441-3.068 1.107-0.95 0.666-1.752 1.613-2.406 2.838v0c-0.705 1.322-1.068 2.602-1.089 3.842-0.027 1.236 0.265 2.36 0.875 3.373 0.607 1.003 1.491 1.814 2.651 2.432v0c2.061 1.099 4.187 1.296 6.377 0.589v0l0.983 3.257c-1.43 0.511-2.94 0.693-4.529 0.547-1.586-0.152-3.179-0.654-4.777-1.506v0c-1.899-1.013-3.344-2.289-4.336-3.83-0.992-1.54-1.508-3.22-1.548-5.04-0.04-1.82 0.433-3.655 1.42-5.506v0c0.99-1.857 2.253-3.275 3.787-4.255 1.534-0.98 3.217-1.487 5.048-1.52 1.832-0.034 3.67 0.426 5.516 1.379v0c2.175 1.16 3.686 2.538 4.534 4.132 0.838 1.597 1.104 3.356 0.797 5.277-0.309 1.911-1.138 3.935-2.486 6.071v0l-14.763-7.875z" fill="#ffffff" data-fill-palette-color="primary"></path><path d="M221.701 56.328l7.523-9.101c1.037-1.254 1.509-2.525 1.416-3.813-0.093-1.287-0.746-2.432-1.959-3.435v0c-1.456-1.168-3.003-1.594-4.642-1.279-1.639 0.315-3.068 1.21-4.286 2.686v0l-0.969-0.801c1.657-2.005 3.271-3.38 4.84-4.123 1.569-0.744 3.103-0.965 4.602-0.662 1.499 0.303 2.957 1.04 4.375 2.211v0c1.254 1.037 2.125 2.18 2.611 3.43 0.477 1.251 0.574 2.533 0.293 3.847-0.287 1.309-0.966 2.612-2.038 3.908v0l-8.278 10.015zM209.749 46.449l13.322-16.116 3.488 2.882-13.322 16.117z" fill="#ffffff" data-fill-palette-color="primary"></path><path d="M229.741 64.82l15.834-13.657 2.929 3.396-15.834 13.657zM253.564 47.226v0c0.498 0.578 0.719 1.219 0.662 1.925-0.047 0.706-0.36 1.309-0.937 1.806v0c-0.552 0.476-1.188 0.692-1.909 0.649-0.711-0.043-1.316-0.353-1.815-0.931v0c-0.48-0.557-0.694-1.196-0.641-1.916 0.058-0.725 0.363-1.325 0.915-1.801v0c0.578-0.498 1.221-0.716 1.932-0.654 0.715 0.058 1.313 0.365 1.793 0.922z" fill="#ffffff" data-fill-palette-color="primary"></path><path d="M256.96 67.132l-10.097 6.141c-1.391 0.846-2.255 1.882-2.594 3.107-0.348 1.224-0.127 2.484 0.662 3.782v0c0.982 1.523 2.286 2.383 3.914 2.582 1.623 0.192 3.244-0.203 4.861-1.188v0l0.631 1.039c-2.199 1.338-4.155 2.112-5.867 2.325-1.718 0.216-3.221-0.041-4.51-0.772-1.293-0.736-2.411-1.861-3.356-3.375v0c-0.832-1.367-1.265-2.71-1.301-4.027-0.036-1.317 0.305-2.553 1.022-3.706 0.708-1.156 1.769-2.164 3.183-3.023v0l11.101-6.752zM244.62 87.082l17.866-10.865 2.351 3.866-17.865 10.865z" fill="#ffffff" data-fill-palette-color="primary"></path><path d="M271.938 104.44l-3.564-0.506c0.219-1.044 0.306-2.135 0.261-3.273-0.051-1.136-0.229-2.138-0.533-3.006v0c-0.295-0.842-0.698-1.48-1.211-1.914-0.513-0.434-1.142-0.52-1.887-0.259v0c-0.617 0.216-1.017 0.641-1.199 1.274-0.182 0.634-0.26 1.39-0.234 2.268 0.035 0.882 0.07 1.819 0.106 2.809 0.041 0.981-0.016 1.954-0.169 2.917-0.149 0.954-0.51 1.809-1.083 2.565-0.566 0.754-1.456 1.343-2.671 1.768v0c-1.337 0.468-2.557 0.498-3.659 0.09-1.102-0.408-2.061-1.115-2.874-2.121-0.808-1.009-1.445-2.182-1.914-3.519v0c-0.504-1.44-0.772-2.958-0.804-4.556-0.035-1.604 0.221-3.057 0.768-4.359v0l3.425 0.51c-0.461 1.135-0.69 2.399-0.686 3.79-0.005 1.387 0.179 2.614 0.553 3.681v0c0.216 0.617 0.49 1.142 0.821 1.574 0.329 0.426 0.704 0.724 1.125 0.895 0.42 0.17 0.891 0.164 1.411-0.018v0c0.694-0.243 1.154-0.682 1.379-1.316 0.225-0.634 0.328-1.392 0.309-2.273-0.013-0.883-0.048-1.816-0.103-2.799-0.056-0.983-0.007-1.938 0.144-2.865 0.143-0.93 0.488-1.769 1.035-2.516 0.547-0.747 1.415-1.328 2.604-1.744v0c1.337-0.468 2.541-0.5 3.613-0.096 1.072 0.404 1.993 1.088 2.764 2.052 0.773 0.971 1.379 2.086 1.82 3.345v0c0.434 1.241 0.695 2.542 0.782 3.904 0.087 1.362-0.023 2.594-0.329 3.698z" fill="#ffffff" data-fill-palette-color="primary"></path><path d="M0 142.227c0-6.23 5.05-11.28 11.28-11.28 6.23 0 11.28 5.05 11.28 11.28 0 6.23-5.05 11.28-11.28 11.28-6.23 0-11.28-5.05-11.28-11.28z" fill="#ffffff" data-fill-palette-color="primary"></path><path d="M257.161 142.227c0-6.23 5.05-11.28 11.279-11.28 6.23 0 11.28 5.05 11.28 11.28 0 6.23-5.05 11.28-11.28 11.28-6.23 0-11.28-5.05-11.279-11.28z" fill="#ffffff" data-fill-palette-color="primary"></path></g><g id="text-1"></g></svg></g></svg></g></svg></g></svg></g><defs></defs><mask id="3cbc0986-28a1-4cf9-aace-c257446661fd"><g id="SvgjsG1502"><svg viewBox="0 0 279.72 279.72" height="279.72" width="279.72"><g><svg viewBox="0 0 279.72 279.72" height="279.72" width="279.72"><g><svg viewBox="0 0 279.72 279.72" height="279.72" width="279.72"><g id="SvgjsG1501"><svg viewBox="0 0 279.72 279.72" height="279.72" width="279.72" id="SvgjsSvg1500"><g><svg viewBox="0 0 279.72 279.72" height="279.72" width="279.72"><g transform="matrix(1,0,0,1,73.92936372216631,73.92999766449647)"><svg viewBox="0 0 131.8612725556674 131.8600046710071" height="131.8600046710071" width="131.8612725556674"><g id="SvgjsG1499"><svg xmlns="http://www.w3.org/2000/svg" xmlns:xlink="http://www.w3.org/1999/xlink" version="1.1" x="0" y="0" viewBox="3 3 26.00025 26" enable-background="new 0 0 32 32" xml:space="preserve" height="131.8600046710071" width="131.8612725556674" class="icon-xg-0" data-fill-palette-color="accent" id="SvgjsSvg1498"><g fill="black"><path d="M26.414 22l2.293-2.293c0.391-0.391 0.391-1.023 0-1.414s-1.023-0.391-1.414 0L25 20.586l-2.293-2.293c-0.391-0.391-1.023-0.391-1.414 0s-0.391 1.023 0 1.414L23.586 22l-2.293 2.293c-0.391 0.391-0.391 1.023 0 1.414C21.488 25.902 21.744 26 22 26s0.512-0.098 0.707-0.293L25 23.414l2.293 2.293C27.488 25.902 27.744 26 28 26s0.512-0.098 0.707-0.293c0.391-0.391 0.391-1.023 0-1.414L26.414 22z" fill="black"></path><path d="M19 3c-2.206 0-4 1.794-4 4 0 0.552 0.448 1 1 1s1-0.448 1-1c0-1.103 0.897-2 2-2 0.553 0 1-0.448 1-1S19.553 3 19 3z" fill="black"></path><path d="M22 5c1.103 0 2 0.897 2 2 0 0.552 0.447 1 1 1s1-0.448 1-1c0-2.206-1.794-4-4-4-0.553 0-1 0.448-1 1S21.447 5 22 5z" fill="black"></path><path d="M16 24c-0.552 0-1 0.447-1 1 0 1.103-0.897 2-2 2-0.552 0-1 0.447-1 1s0.448 1 1 1c2.206 0 4-1.794 4-4C17 24.447 16.552 24 16 24z" fill="black"></path><path d="M10 27c-1.103 0-2-0.897-2-2 0-0.553-0.448-1-1-1s-1 0.447-1 1c0 2.206 1.794 4 4 4 0.552 0 1-0.447 1-1S10.552 27 10 27z" fill="black"></path><path d="M26 10c0-0.552-0.447-1-1-1s-1 0.448-1 1v2c0 0.552 0.447 1 1 1s1-0.448 1-1V10z" fill="black"></path><path d="M16 9c-0.552 0-1 0.448-1 1v2c0 0.552 0.448 1 1 1s1-0.448 1-1v-2C17 9.448 16.552 9 16 9z" fill="black"></path><path d="M16 19c-0.552 0-1 0.447-1 1v2c0 0.553 0.448 1 1 1s1-0.447 1-1v-2C17 19.447 16.552 19 16 19z" fill="black"></path><path d="M6 22c0 0.553 0.448 1 1 1s1-0.447 1-1v-2c0-0.553-0.448-1-1-1s-1 0.447-1 1V22z" fill="black"></path><path d="M7 18c0.552 0 1-0.447 1-1v-2c0-0.552-0.448-1-1-1s-1 0.448-1 1v2C6 17.553 6.448 18 7 18z" fill="black"></path><path d="M7 5C4.794 5 3 6.794 3 9s1.794 4 4 4 4-1.794 4-4S9.206 5 7 5zM7 11c-1.103 0-2-0.897-2-2s0.897-2 2-2 2 0.897 2 2S8.103 11 7 11z" fill="black"></path><path d="M16 14c-0.552 0-1 0.448-1 1v2c0 0.553 0.448 1 1 1s1-0.447 1-1v-2C17 14.448 16.552 14 16 14z" fill="black"></path><path d="M25 14c-0.553 0-1 0.448-1 1v2c0 0.553 0.447 1 1 1s1-0.447 1-1v-2C26 14.448 25.553 14 25 14z" fill="black"></path></g></svg></g></svg></g><g id="SvgjsG1497"><path d="M4.512 87.617l18.112 6.037c2.616 0.872 4.399 2.277 5.346 4.215 0.943 1.929 0.995 4.154 0.156 6.673v0c-0.523 1.57-1.33 2.891-2.42 3.964-1.09 1.072-2.382 1.902-3.876 2.487v0l-2.52-3.165c1.215-0.564 2.232-1.248 3.053-2.051 0.823-0.81 1.382-1.66 1.68-2.552v0c0.392-1.176 0.329-2.216-0.188-3.121-0.51-0.902-1.45-1.582-2.82-2.038v0l-14.236-4.745-3.013 9.042-3.77-1.257z" fill="black"></path><path d="M19.948 71.656v0c1.063-1.871 2.388-3.299 3.975-4.285 1.587-0.986 3.297-1.486 5.131-1.502 1.834-0.015 3.665 0.497 5.494 1.537v0c1.823 1.036 3.204 2.35 4.141 3.94 0.937 1.59 1.388 3.319 1.352 5.186-0.035 1.868-0.585 3.737-1.648 5.608v0c-1.063 1.871-2.39 3.302-3.98 4.294-1.593 0.998-3.313 1.501-5.158 1.509-1.846 0.008-3.68-0.506-5.504-1.542v0c-1.829-1.04-3.207-2.351-4.132-3.935-0.925-1.583-1.367-3.315-1.324-5.194 0.039-1.874 0.59-3.746 1.653-5.616zM23.127 73.463v0c-0.623 1.095-0.915 2.21-0.878 3.343 0.034 1.139 0.374 2.202 1.02 3.188 0.646 0.986 1.564 1.817 2.754 2.493v0c1.208 0.687 2.4 1.055 3.578 1.106 1.178 0.051 2.265-0.201 3.26-0.755 0.993-0.548 1.801-1.369 2.424-2.465v0c0.623-1.095 0.914-2.207 0.873-3.334-0.041-1.128-0.384-2.184-1.03-3.17-0.646-0.986-1.573-1.822-2.78-2.509v0c-1.19-0.676-2.374-1.04-3.552-1.09-1.178-0.051-2.261 0.195-3.25 0.737-0.99 0.542-1.796 1.361-2.419 2.456z" fill="black"></path><path d="M34.08 51.738l8.868 7.812c1.221 1.076 2.467 1.593 3.739 1.551 1.272-0.032 2.41-0.618 3.413-1.758v0c1.162-1.391 1.595-2.892 1.3-4.504-0.3-1.607-1.16-3.036-2.58-4.288v0l0.803-0.912c1.932 1.702 3.253 3.338 3.966 4.909 0.717 1.576 0.919 3.088 0.605 4.536-0.318 1.453-1.059 2.856-2.223 4.208v0c-1.058 1.201-2.21 2.014-3.457 2.441-1.247 0.426-2.528 0.469-3.842 0.128-1.314-0.332-2.592-1.045-3.834-2.139v0l-9.75-8.589zM56.799 57.58l-15.69-13.821 2.991-3.396 15.69 13.822z" fill="black"></path><path d="M62.258 25.674l2.5 3.244c-1.236 0.85-2.105 1.842-2.606 2.976-0.501 1.134-0.664 2.296-0.487 3.484 0.171 1.192 0.672 2.328 1.504 3.407v0l-1.089 0.645c-1.426-1.85-2.358-3.616-2.796-5.299-0.438-1.683-0.401-3.247 0.112-4.691 0.516-1.438 1.47-2.694 2.862-3.766zM65.798 49.54l-12.767-16.56 3.584-2.763 12.766 16.56z" fill="black"></path><path d="M93.161 32.987l-5.472-10.464c-0.754-1.442-1.743-2.37-2.965-2.784-1.223-0.413-2.531-0.256-3.925 0.474v0c-1.641 0.889-2.634 2.149-2.979 3.782-0.345 1.633-0.074 3.297 0.812 4.993v0l-1.113 0.582c-1.205-2.305-1.847-4.325-1.924-6.06-0.077-1.735 0.314-3.234 1.175-4.499 0.86-1.264 2.105-2.323 3.735-3.175v0c1.442-0.754 2.834-1.113 4.174-1.076 1.338 0.046 2.558 0.453 3.659 1.222 1.095 0.772 2.033 1.903 2.812 3.394v0l6.021 11.514zM79.42 40.172l-9.689-18.53 4.01-2.096 9.689 18.529z" fill="black"></path><path d="M102.188 17.221l12.386-3.222c-0.349-1.126-0.862-2.031-1.539-2.713-0.675-0.676-1.492-1.125-2.451-1.347-0.954-0.23-1.974-0.204-3.061 0.079v0c-1.219 0.317-2.207 0.873-2.965 1.668-0.757 0.795-1.259 1.759-1.506 2.893-0.247 1.134-0.195 2.373 0.154 3.717v0c0.377 1.45 0.978 2.638 1.803 3.563 0.818 0.927 1.795 1.556 2.929 1.888 1.126 0.326 2.325 0.324 3.597-0.007v0c2.261-0.588 3.957-1.884 5.09-3.889v0l2.93 1.729c-0.706 1.345-1.692 2.502-2.96 3.472-1.269 0.963-2.78 1.673-4.534 2.129v0c-2.083 0.542-4.011 0.582-5.784 0.122-1.773-0.46-3.291-1.346-4.554-2.657-1.263-1.311-2.158-2.981-2.686-5.012v0c-0.53-2.036-0.563-3.935-0.099-5.695 0.464-1.76 1.358-3.273 2.682-4.539 1.324-1.266 2.988-2.174 4.991-2.724v0c2.386-0.621 4.43-0.632 6.135-0.033 1.699 0.607 3.086 1.72 4.161 3.34 1.067 1.615 1.829 3.665 2.286 6.15v0l-16.193 4.212z" fill="black"></path><path d="M143.559 2.491l-8.358 24.298c-0.575 1.63-1.421 2.888-2.536 3.774-1.109 0.879-2.453 1.357-4.031 1.434v0c-0.939 0.046-1.803-0.055-2.592-0.303-0.79-0.255-1.566-0.653-2.329-1.195v0l1.766-3.431c0.979 0.634 1.9 0.93 2.764 0.888v0c0.68-0.033 1.286-0.26 1.817-0.681 0.532-0.421 0.948-1.045 1.249-1.871v0l0.634-1.688-9.657-20.188 4.673-0.228 7.041 15.826 5.039-16.414z" fill="black"></path><path d="M189.41 8.217l-3.359 2.412c-0.76-1.235-1.746-2.304-2.959-3.208-1.221-0.899-2.53-1.531-3.926-1.898v0c-1.37-0.36-2.704-0.44-4.004-0.24-1.299 0.201-2.51 0.629-3.633 1.284-1.123 0.655-2.086 1.507-2.89 2.556-0.804 1.049-1.386 2.258-1.746 3.629v0c-0.36 1.37-0.45 2.716-0.27 4.037 0.179 1.329 0.595 2.558 1.249 3.688 0.652 1.136 1.501 2.113 2.546 2.929 1.046 0.817 2.253 1.406 3.623 1.766v0c1.245 0.327 2.599 0.412 4.062 0.255 1.47-0.156 2.852-0.524 4.147-1.106v0l1.767 3.802c-1.069 0.451-2.25 0.792-3.543 1.023-1.299 0.229-2.61 0.327-3.933 0.296-1.321-0.038-2.591-0.217-3.809-0.537v0c-1.976-0.52-3.718-1.351-5.227-2.494-1.502-1.141-2.729-2.503-3.68-4.083-0.957-1.582-1.573-3.297-1.847-5.144-0.273-1.853-0.159-3.732 0.341-5.635v0c0.501-1.903 1.329-3.58 2.484-5.029 1.154-1.443 2.54-2.617 4.158-3.522 1.625-0.904 3.397-1.469 5.316-1.697 1.919-0.228 3.879-0.078 5.881 0.448v0c1.271 0.334 2.483 0.815 3.635 1.442 1.15 0.633 2.212 1.374 3.186 2.221 0.966 0.853 1.776 1.787 2.431 2.805zM180.095 27.092l2.582-9.82 3.922 1.032-2.582 9.819z" fill="black"></path><path d="M196.32 24.56l11.292 6.024c0.506-1.065 0.742-2.078 0.707-3.038-0.039-0.955-0.335-1.838-0.89-2.651-0.545-0.816-1.313-1.488-2.305-2.017v0c-1.112-0.593-2.215-0.854-3.31-0.782-1.096 0.072-2.118 0.441-3.068 1.107-0.95 0.666-1.752 1.613-2.406 2.838v0c-0.705 1.322-1.068 2.602-1.089 3.842-0.027 1.236 0.265 2.36 0.875 3.373 0.607 1.003 1.491 1.814 2.651 2.432v0c2.061 1.099 4.187 1.296 6.377 0.589v0l0.983 3.257c-1.43 0.511-2.94 0.693-4.529 0.547-1.586-0.152-3.179-0.654-4.777-1.506v0c-1.899-1.013-3.344-2.289-4.336-3.83-0.992-1.54-1.508-3.22-1.548-5.04-0.04-1.82 0.433-3.655 1.42-5.506v0c0.99-1.857 2.253-3.275 3.787-4.255 1.534-0.98 3.217-1.487 5.048-1.52 1.832-0.034 3.67 0.426 5.516 1.379v0c2.175 1.16 3.686 2.538 4.534 4.132 0.838 1.597 1.104 3.356 0.797 5.277-0.309 1.911-1.138 3.935-2.486 6.071v0l-14.763-7.875z" fill="black"></path><path d="M221.701 56.328l7.523-9.101c1.037-1.254 1.509-2.525 1.416-3.813-0.093-1.287-0.746-2.432-1.959-3.435v0c-1.456-1.168-3.003-1.594-4.642-1.279-1.639 0.315-3.068 1.21-4.286 2.686v0l-0.969-0.801c1.657-2.005 3.271-3.38 4.84-4.123 1.569-0.744 3.103-0.965 4.602-0.662 1.499 0.303 2.957 1.04 4.375 2.211v0c1.254 1.037 2.125 2.18 2.611 3.43 0.477 1.251 0.574 2.533 0.293 3.847-0.287 1.309-0.966 2.612-2.038 3.908v0l-8.278 10.015zM209.749 46.449l13.322-16.116 3.488 2.882-13.322 16.117z" fill="black"></path><path d="M229.741 64.82l15.834-13.657 2.929 3.396-15.834 13.657zM253.564 47.226v0c0.498 0.578 0.719 1.219 0.662 1.925-0.047 0.706-0.36 1.309-0.937 1.806v0c-0.552 0.476-1.188 0.692-1.909 0.649-0.711-0.043-1.316-0.353-1.815-0.931v0c-0.48-0.557-0.694-1.196-0.641-1.916 0.058-0.725 0.363-1.325 0.915-1.801v0c0.578-0.498 1.221-0.716 1.932-0.654 0.715 0.058 1.313 0.365 1.793 0.922z" fill="black"></path><path d="M256.96 67.132l-10.097 6.141c-1.391 0.846-2.255 1.882-2.594 3.107-0.348 1.224-0.127 2.484 0.662 3.782v0c0.982 1.523 2.286 2.383 3.914 2.582 1.623 0.192 3.244-0.203 4.861-1.188v0l0.631 1.039c-2.199 1.338-4.155 2.112-5.867 2.325-1.718 0.216-3.221-0.041-4.51-0.772-1.293-0.736-2.411-1.861-3.356-3.375v0c-0.832-1.367-1.265-2.71-1.301-4.027-0.036-1.317 0.305-2.553 1.022-3.706 0.708-1.156 1.769-2.164 3.183-3.023v0l11.101-6.752zM244.62 87.082l17.866-10.865 2.351 3.866-17.865 10.865z" fill="black"></path><path d="M271.938 104.44l-3.564-0.506c0.219-1.044 0.306-2.135 0.261-3.273-0.051-1.136-0.229-2.138-0.533-3.006v0c-0.295-0.842-0.698-1.48-1.211-1.914-0.513-0.434-1.142-0.52-1.887-0.259v0c-0.617 0.216-1.017 0.641-1.199 1.274-0.182 0.634-0.26 1.39-0.234 2.268 0.035 0.882 0.07 1.819 0.106 2.809 0.041 0.981-0.016 1.954-0.169 2.917-0.149 0.954-0.51 1.809-1.083 2.565-0.566 0.754-1.456 1.343-2.671 1.768v0c-1.337 0.468-2.557 0.498-3.659 0.09-1.102-0.408-2.061-1.115-2.874-2.121-0.808-1.009-1.445-2.182-1.914-3.519v0c-0.504-1.44-0.772-2.958-0.804-4.556-0.035-1.604 0.221-3.057 0.768-4.359v0l3.425 0.51c-0.461 1.135-0.69 2.399-0.686 3.79-0.005 1.387 0.179 2.614 0.553 3.681v0c0.216 0.617 0.49 1.142 0.821 1.574 0.329 0.426 0.704 0.724 1.125 0.895 0.42 0.17 0.891 0.164 1.411-0.018v0c0.694-0.243 1.154-0.682 1.379-1.316 0.225-0.634 0.328-1.392 0.309-2.273-0.013-0.883-0.048-1.816-0.103-2.799-0.056-0.983-0.007-1.938 0.144-2.865 0.143-0.93 0.488-1.769 1.035-2.516 0.547-0.747 1.415-1.328 2.604-1.744v0c1.337-0.468 2.541-0.5 3.613-0.096 1.072 0.404 1.993 1.088 2.764 2.052 0.773 0.971 1.379 2.086 1.82 3.345v0c0.434 1.241 0.695 2.542 0.782 3.904 0.087 1.362-0.023 2.594-0.329 3.698z" fill="black"></path><path d="M0 142.227c0-6.23 5.05-11.28 11.28-11.28 6.23 0 11.28 5.05 11.28 11.28 0 6.23-5.05 11.28-11.28 11.28-6.23 0-11.28-5.05-11.28-11.28z" fill="black"></path><path d="M257.161 142.227c0-6.23 5.05-11.28 11.279-11.28 6.23 0 11.28 5.05 11.28 11.28 0 6.23-5.05 11.28-11.28 11.28-6.23 0-11.28-5.05-11.279-11.28z" fill="black"></path></g><g id="SvgjsG1496"><path d="M9.45 179.813l17.589-4.843 0.816 2.964-17.589 4.843z" fill="white"></path><path d="M29.799 186.389l-11.903 4.564c-0.699 0.268-1.129 0.575-1.288 0.92-0.155 0.337-0.149 0.724 0.019 1.164v0c0.112 0.292 0.277 0.579 0.495 0.86 0.221 0.273 0.499 0.56 0.833 0.862v0l-1.751 1.481c-0.498-0.385-0.935-0.812-1.311-1.28-0.376-0.468-0.671-0.979-0.883-1.532v0c-0.249-0.649-0.352-1.298-0.31-1.949 0.036-0.648 0.267-1.244 0.693-1.787 0.426-0.543 1.078-0.982 1.956-1.319v0l12.389-4.75zM22.504 183.913l2.003-0.768 3.23 8.421-2.003 0.768z" fill="white"></path><path d="M17.376 200.952l12.532-5.876 1.261 2.691-12.532 5.876zM35.706 193.993v0c0.214 0.456 0.244 0.905 0.09 1.346-0.163 0.438-0.473 0.763-0.93 0.977v0c-0.438 0.205-0.88 0.232-1.327 0.081-0.45-0.158-0.782-0.465-0.996-0.921v0c-0.205-0.438-0.226-0.883-0.062-1.336 0.164-0.453 0.465-0.782 0.902-0.987v0c0.456-0.214 0.908-0.238 1.355-0.071 0.441 0.17 0.763 0.473 0.968 0.911z" fill="white"></path><path d="M27.247 218.304l6.687-4.064c0.919-0.559 1.489-1.248 1.708-2.066 0.222-0.828 0.062-1.687-0.478-2.578v0c-0.652-1.046-1.528-1.649-2.63-1.809-1.092-0.157-2.179 0.093-3.261 0.751v0l-0.435-0.716c1.472-0.895 2.781-1.403 3.926-1.525 1.141-0.128 2.149 0.068 3.024 0.589 0.871 0.515 1.622 1.293 2.255 2.335v0c0.559 0.919 0.855 1.819 0.888 2.7 0.031 0.89-0.185 1.714-0.648 2.474-0.463 0.759-1.172 1.429-2.126 2.009v0l-7.35 4.466zM21.916 209.531l11.828-7.188 1.554 2.558-11.828 7.188z" fill="white"></path><path d="M39.714 221.845l5.414 6.512c0.58-0.527 0.978-1.087 1.192-1.682 0.214-0.594 0.254-1.212 0.12-1.853-0.13-0.636-0.435-1.242-0.914-1.818v0c-0.531-0.639-1.141-1.075-1.83-1.307-0.685-0.227-1.403-0.255-2.154-0.082-0.751 0.173-1.48 0.553-2.187 1.14v0c-0.765 0.636-1.309 1.328-1.635 2.077-0.321 0.754-0.42 1.518-0.298 2.293 0.118 0.77 0.453 1.488 1.006 2.153v0c0.993 1.194 2.248 1.846 3.766 1.957v0l-0.206 2.244c-1.006-0.049-1.975-0.315-2.908-0.797-0.937-0.488-1.788-1.192-2.555-2.114v0c-0.914-1.1-1.481-2.245-1.7-3.435-0.229-1.191-0.127-2.352 0.306-3.483 0.428-1.126 1.176-2.133 2.244-3.021v0c1.068-0.888 2.198-1.442 3.387-1.661 1.185-0.215 2.345-0.103 3.48 0.335 1.13 0.433 2.141 1.174 3.031 2.223v0c1.045 1.257 1.626 2.478 1.744 3.664 0.122 1.191-0.152 2.336-0.823 3.434-0.666 1.094-1.68 2.128-3.042 3.101v0l-7.079-8.515z" fill="white"></path><path d="M59.845 234.663l-1.88 1.947c-0.672-0.725-1.405-1.196-2.199-1.414-0.789-0.222-1.567-0.221-2.334 0.004-0.762 0.23-1.457 0.671-2.086 1.322v0l-0.532-0.655c1.074-1.112 2.144-1.891 3.211-2.339 1.061-0.452 2.087-0.578 3.078-0.378 0.991 0.2 1.905 0.704 2.742 1.513zM44.552 239.277l9.616-9.955 2.153 2.079-9.616 9.955z" fill="white"></path><path d="M64.576 248.095l-3.282-2.536c-0.771-0.595-1.433-0.918-1.988-0.969-0.551-0.056-1.032 0.183-1.445 0.717v0c-0.396 0.512-0.521 1.064-0.377 1.658 0.149 0.597 0.553 1.15 1.21 1.658v0c0.593 0.458 1.203 0.766 1.83 0.923 0.622 0.153 1.205 0.161 1.751 0.024 0.555-0.139 1.007-0.423 1.354-0.851v0l-1.09 2.346c-0.899 0.45-1.836 0.582-2.811 0.397-0.979-0.18-1.957-0.647-2.932-1.401v0c-0.787-0.608-1.352-1.286-1.695-2.033-0.339-0.753-0.47-1.508-0.393-2.266 0.087-0.759 0.374-1.453 0.862-2.084v0c0.766-0.991 1.739-1.505 2.919-1.539 1.18-0.035 2.434 0.453 3.763 1.462v0l3.629 2.805zM60.506 252.76l5.356-6.963c0.554-0.717 0.764-1.445 0.63-2.186-0.134-0.74-0.634-1.446-1.502-2.116v0c-0.523-0.404-1.128-0.717-1.817-0.939-0.694-0.227-1.46-0.366-2.297-0.419v0l0.211-2.278c0.752 0.074 1.434 0.183 2.044 0.328 0.62 0.144 1.228 0.36 1.824 0.648 0.601 0.292 1.251 0.709 1.951 1.25v0c1.417 1.095 2.246 2.278 2.487 3.548 0.235 1.266-0.101 2.503-1.01 3.712v0l-5.549 7.214z" fill="white"></path><path d="M82.098 250.087l-1.403 2.315c-0.816-0.558-1.635-0.856-2.458-0.892-0.819-0.042-1.577 0.131-2.274 0.52-0.692 0.393-1.273 0.976-1.742 1.751v0l-0.664-0.521c0.801-1.322 1.672-2.319 2.613-2.991 0.935-0.675 1.908-1.026 2.919-1.05 1.01-0.025 2.013 0.265 3.009 0.868zM68.205 257.971l7.175-11.837 2.559 1.552-7.174 11.836z" fill="white"></path><path d="M95.696 256.39l-12.305 11.741c-0.832 0.788-1.711 1.27-2.637 1.445-0.923 0.185-1.858 0.061-2.806-0.372v0c-0.57-0.26-1.047-0.583-1.432-0.969-0.392-0.389-0.728-0.857-1.01-1.405v0l2.083-1.485c0.383 0.669 0.835 1.123 1.355 1.36v0c0.409 0.187 0.834 0.239 1.276 0.156 0.445-0.089 0.881-0.331 1.309-0.727v0l0.882-0.798 0.454-14.808 2.825 1.29-0.669 11.442 7.943-8.118z" fill="white"></path><path d="M107.31 255.566l7.064 1.729c2.229 0.546 3.827 1.494 4.793 2.845 0.965 1.358 1.214 2.989 0.747 4.895v0c-0.487 1.991-1.478 3.389-2.972 4.194-1.494 0.805-3.356 0.935-5.585 0.389v0l-5.397-1.321 1.64-0.987-1.642 6.707-2.986-0.731zM106.584 265.747l5.269 1.289c1.369 0.335 2.498 0.292 3.386-0.128 0.888-0.421 1.484-1.253 1.789-2.496v0c0.295-1.204 0.143-2.187-0.456-2.951-0.598-0.763-1.582-1.313-2.951-1.648v0l-5.269-1.289 1.64-0.987-2.409 9.842z" fill="white"></path><path d="M122.297 277.375l2.626-19.168 2.965 0.406-2.626 19.168z" fill="white"></path><path d="M140.978 272.274l-4.145-0.115c-0.973-0.027-1.699 0.103-2.177 0.389-0.478 0.28-0.726 0.757-0.745 1.431v0c-0.018 0.647 0.206 1.167 0.672 1.561 0.473 0.395 1.124 0.603 1.955 0.627v0c0.749 0.021 1.423-0.09 2.022-0.333 0.593-0.242 1.069-0.58 1.428-1.013 0.366-0.439 0.564-0.935 0.593-1.485v0l0.502 2.537c-0.461 0.893-1.14 1.552-2.037 1.978-0.898 0.432-1.962 0.63-3.195 0.596v0c-0.994-0.028-1.85-0.242-2.567-0.644-0.718-0.408-1.268-0.941-1.652-1.598-0.377-0.664-0.554-1.395-0.532-2.192v0c0.035-1.253 0.518-2.241 1.451-2.964 0.933-0.724 2.233-1.069 3.902-1.036v0l4.584 0.126zM140.44 278.441l0.222-8.782c0.025-0.905-0.235-1.618-0.778-2.137-0.544-0.519-1.364-0.794-2.461-0.824v0c-0.66-0.018-1.334 0.086-2.021 0.312-0.694 0.226-1.395 0.564-2.103 1.015v0l-1.172-1.964c0.651-0.384 1.266-0.697 1.845-0.94 0.586-0.249 1.204-0.433 1.855-0.552 0.657-0.118 1.428-0.165 2.313-0.14v0c1.79 0.05 3.157 0.517 4.1 1.401 0.936 0.884 1.393 2.082 1.372 3.594v0l-0.232 9.098z" fill="white"></path><path d="M160.08 276.961l-0.832-7.78c-0.114-1.07-0.495-1.878-1.143-2.426-0.655-0.553-1.5-0.774-2.536-0.663v0c-1.224 0.145-2.143 0.681-2.756 1.609-0.607 0.921-0.843 2.011-0.708 3.271v0l-0.833 0.089c-0.183-1.713-0.086-3.114 0.29-4.202 0.37-1.087 0.977-1.916 1.82-2.485 0.836-0.569 1.861-0.918 3.072-1.048v0c1.07-0.114 2.01 0.001 2.821 0.346 0.818 0.351 1.473 0.897 1.963 1.639 0.49 0.742 0.795 1.668 0.914 2.779v0l0.914 8.552zM149.872 278.053l-1.472-13.763 2.976-0.318 1.472 13.762z" fill="white"></path><path d="M179.428 272.572l-1.96-7.575c-0.27-1.042-0.764-1.786-1.485-2.232-0.729-0.452-1.598-0.547-2.606-0.286v0c-1.19 0.322-2.02 0.987-2.491 1.995-0.466 1-0.54 2.113-0.223 3.339v0l-0.811 0.21c-0.432-1.668-0.54-3.068-0.327-4.2 0.207-1.13 0.686-2.038 1.437-2.724 0.744-0.685 1.706-1.18 2.887-1.486v0c1.042-0.27 1.989-0.293 2.841-0.07 0.861 0.227 1.588 0.672 2.181 1.335 0.593 0.662 1.03 1.534 1.31 2.615v0l2.154 8.327zM169.489 275.144l-3.467-13.4 2.898-0.75 3.467 13.4z" fill="white"></path><path d="M186.417 261.657l7.796-3.306c-0.337-0.708-0.759-1.25-1.267-1.627-0.507-0.377-1.087-0.593-1.739-0.649-0.646-0.059-1.314 0.058-2.004 0.351v0c-0.765 0.324-1.358 0.783-1.78 1.376-0.415 0.59-0.649 1.27-0.7 2.038-0.051 0.769 0.103 1.576 0.461 2.423v0c0.388 0.915 0.894 1.637 1.517 2.164 0.629 0.525 1.333 0.84 2.11 0.947 0.771 0.109 1.555-0.005 2.352-0.342v0c1.429-0.606 2.416-1.62 2.959-3.042v0l2.09 0.845c-0.337 0.949-0.871 1.801-1.602 2.555-0.737 0.756-1.657 1.368-2.761 1.836v0c-1.317 0.558-2.576 0.771-3.78 0.637-1.207-0.124-2.289-0.557-3.246-1.297-0.955-0.734-1.703-1.741-2.246-3.02v0c-0.542-1.279-0.747-2.52-0.613-3.723 0.136-1.197 0.577-2.275 1.324-3.235 0.74-0.958 1.741-1.711 3.003-2.261v0c1.505-0.638 2.842-0.843 4.011-0.614 1.176 0.226 2.193 0.819 3.051 1.78 0.856 0.954 1.553 2.223 2.092 3.806v0l-10.195 4.323z" fill="white"></path><path d="M204.498 246.079l1.321 2.363c-0.888 0.434-1.551 1-1.988 1.697-0.441 0.691-0.664 1.436-0.669 2.235 0 0.796 0.222 1.589 0.663 2.38v0l-0.78 0.319c-0.755-1.349-1.192-2.599-1.313-3.748-0.126-1.147 0.049-2.165 0.526-3.057 0.477-0.891 1.224-1.621 2.24-2.189zM204.502 262.053l-6.756-12.08 2.612-1.461 6.756 12.08z" fill="white"></path><path d="M222.996 249.935l-9.17-11.488c-0.684-0.857-1.066-1.707-1.146-2.549-0.081-0.833 0.06-1.612 0.423-2.337 0.361-0.715 0.853-1.322 1.476-1.818v0c0.325-0.259 0.689-0.48 1.091-0.663 0.402-0.173 0.806-0.3 1.213-0.379v0l0.941 2.177c-0.255 0.073-0.532 0.168-0.832 0.284-0.294 0.112-0.563 0.266-0.807 0.462v0c-0.261 0.208-0.463 0.452-0.606 0.731-0.143 0.28-0.192 0.584-0.146 0.914 0.044 0.339 0.207 0.685 0.487 1.036v0l9.399 11.776zM214.577 242.318l-1.339-1.676 6.587-5.258 1.338 1.677z" fill="white"></path><path d="M225.78 228.729v0c1.013-1 2.113-1.674 3.299-2.023 1.187-0.339 2.367-0.346 3.539-0.021 1.173 0.316 2.247 0.968 3.224 1.956v0c0.976 0.989 1.619 2.076 1.929 3.263 0.315 1.182 0.293 2.361-0.065 3.539-0.359 1.187-1.045 2.281-2.058 3.28v0c-1.013 1-2.117 1.674-3.314 2.023-1.192 0.354-2.376 0.365-3.554 0.036-1.183-0.325-2.262-0.982-3.238-1.971v0c-0.976-0.989-1.614-2.071-1.915-3.248-0.31-1.177-0.284-2.361 0.08-3.554 0.369-1.187 1.059-2.281 2.073-3.28zM227.481 230.452v0c-0.596 0.589-0.985 1.246-1.169 1.971-0.183 0.736-0.156 1.475 0.08 2.218 0.236 0.743 0.672 1.437 1.309 2.082v0c0.646 0.654 1.339 1.104 2.079 1.349 0.74 0.245 1.479 0.281 2.216 0.108 0.728-0.174 1.39-0.555 1.987-1.143v0c0.591-0.584 0.976-1.236 1.153-1.957 0.178-0.731 0.149-1.468-0.087-2.211-0.236-0.743-0.677-1.442-1.323-2.096v0c-0.636-0.644-1.325-1.089-2.064-1.335-0.74-0.245-1.477-0.284-2.21-0.115-0.723 0.169-1.381 0.545-1.971 1.129z" fill="white"></path><path d="M238.256 214.557l2.107 1.699c-0.662 0.734-1.066 1.506-1.212 2.316-0.151 0.806-0.08 1.58 0.212 2.324 0.297 0.738 0.798 1.392 1.503 1.96v0l-0.605 0.588c-1.203-0.971-2.075-1.967-2.616-2.989-0.545-1.017-0.762-2.027-0.651-3.032 0.11-1.005 0.531-1.96 1.262-2.866zM244.215 229.377l-10.773-8.69 1.879-2.329 10.774 8.689z" fill="white"></path><path d="M255.626 213.397l-12.532-15.511 1.446-2.806 19.872 1.263-1.507 2.924-16.376-1.289 10.562 12.576zM253.714 207.896l-2.324-1.198 5.001-9.707 2.324 1.198z" fill="white"></path><path d="M266.16 192.084l-17.989-7.121 1.102-2.783 17.989 7.121z" fill="white"></path><path d="M269.362 182.874l-18.454-5.809 0.899-2.855 18.454 5.809z" fill="white"></path></g></svg></g></svg></g></svg></g></svg></g><defs><mask></mask></defs></svg><rect width="279.72" height="279.72" fill="black" stroke="none" visibility="hidden"></rect></g></mask><linearGradient x1="0.054" x2="0.941" y1="0.5" y2="0.5" id="dbfe1ff4-2f87-40ec-9ccb-4a7b95d78739"><stop stop-color="#8c8c8c" offset="0"></stop><stop stop-color="#e3e4e5" offset="0.498"></stop><stop stop-color="#8c8c8c" offset="1"></stop></linearGradient><rect width="279.72" height="279.72" fill="#ffffff" mask="url(#3cbc0986-28a1-4cf9-aace-c257446661fd)" data-fill-palette-color="secondary"></rect><mask id="87acaa13-96e1-4583-aa94-8e51da340402"><g id="SvgjsG1516"><svg viewBox="0 0 279.72 279.72" height="279.72" width="279.72"><g><svg viewBox="0 0 279.72 279.72" height="279.72" width="279.72"><g><svg viewBox="0 0 279.72 279.72" height="279.72" width="279.72"><g id="SvgjsG1515"><svg viewBox="0 0 279.72 279.72" height="279.72" width="279.72" id="SvgjsSvg1514"><g><svg viewBox="0 0 279.72 279.72" height="279.72" width="279.72"><g transform="matrix(1,0,0,1,73.92936372216631,73.92999766449647)"><svg viewBox="0 0 131.8612725556674 131.8600046710071" height="131.8600046710071" width="131.8612725556674"><g id="SvgjsG1513"><svg xmlns="http://www.w3.org/2000/svg" xmlns:xlink="http://www.w3.org/1999/xlink" version="1.1" x="0" y="0" viewBox="3 3 26.00025 26" enable-background="new 0 0 32 32" xml:space="preserve" height="131.8600046710071" width="131.8612725556674" class="icon-xg-0" data-fill-palette-color="accent" id="SvgjsSvg1512"><g fill="white"><path d="M26.414 22l2.293-2.293c0.391-0.391 0.391-1.023 0-1.414s-1.023-0.391-1.414 0L25 20.586l-2.293-2.293c-0.391-0.391-1.023-0.391-1.414 0s-0.391 1.023 0 1.414L23.586 22l-2.293 2.293c-0.391 0.391-0.391 1.023 0 1.414C21.488 25.902 21.744 26 22 26s0.512-0.098 0.707-0.293L25 23.414l2.293 2.293C27.488 25.902 27.744 26 28 26s0.512-0.098 0.707-0.293c0.391-0.391 0.391-1.023 0-1.414L26.414 22z" fill="white"></path><path d="M19 3c-2.206 0-4 1.794-4 4 0 0.552 0.448 1 1 1s1-0.448 1-1c0-1.103 0.897-2 2-2 0.553 0 1-0.448 1-1S19.553 3 19 3z" fill="white"></path><path d="M22 5c1.103 0 2 0.897 2 2 0 0.552 0.447 1 1 1s1-0.448 1-1c0-2.206-1.794-4-4-4-0.553 0-1 0.448-1 1S21.447 5 22 5z" fill="white"></path><path d="M16 24c-0.552 0-1 0.447-1 1 0 1.103-0.897 2-2 2-0.552 0-1 0.447-1 1s0.448 1 1 1c2.206 0 4-1.794 4-4C17 24.447 16.552 24 16 24z" fill="white"></path><path d="M10 27c-1.103 0-2-0.897-2-2 0-0.553-0.448-1-1-1s-1 0.447-1 1c0 2.206 1.794 4 4 4 0.552 0 1-0.447 1-1S10.552 27 10 27z" fill="white"></path><path d="M26 10c0-0.552-0.447-1-1-1s-1 0.448-1 1v2c0 0.552 0.447 1 1 1s1-0.448 1-1V10z" fill="white"></path><path d="M16 9c-0.552 0-1 0.448-1 1v2c0 0.552 0.448 1 1 1s1-0.448 1-1v-2C17 9.448 16.552 9 16 9z" fill="white"></path><path d="M16 19c-0.552 0-1 0.447-1 1v2c0 0.553 0.448 1 1 1s1-0.447 1-1v-2C17 19.447 16.552 19 16 19z" fill="white"></path><path d="M6 22c0 0.553 0.448 1 1 1s1-0.447 1-1v-2c0-0.553-0.448-1-1-1s-1 0.447-1 1V22z" fill="white"></path><path d="M7 18c0.552 0 1-0.447 1-1v-2c0-0.552-0.448-1-1-1s-1 0.448-1 1v2C6 17.553 6.448 18 7 18z" fill="white"></path><path d="M7 5C4.794 5 3 6.794 3 9s1.794 4 4 4 4-1.794 4-4S9.206 5 7 5zM7 11c-1.103 0-2-0.897-2-2s0.897-2 2-2 2 0.897 2 2S8.103 11 7 11z" fill="white"></path><path d="M16 14c-0.552 0-1 0.448-1 1v2c0 0.553 0.448 1 1 1s1-0.447 1-1v-2C17 14.448 16.552 14 16 14z" fill="white"></path><path d="M25 14c-0.553 0-1 0.448-1 1v2c0 0.553 0.447 1 1 1s1-0.447 1-1v-2C26 14.448 25.553 14 25 14z" fill="white"></path></g></svg></g></svg></g><g id="SvgjsG1511"><path d="M4.512 87.617l18.112 6.037c2.616 0.872 4.399 2.277 5.346 4.215 0.943 1.929 0.995 4.154 0.156 6.673v0c-0.523 1.57-1.33 2.891-2.42 3.964-1.09 1.072-2.382 1.902-3.876 2.487v0l-2.52-3.165c1.215-0.564 2.232-1.248 3.053-2.051 0.823-0.81 1.382-1.66 1.68-2.552v0c0.392-1.176 0.329-2.216-0.188-3.121-0.51-0.902-1.45-1.582-2.82-2.038v0l-14.236-4.745-3.013 9.042-3.77-1.257z" fill="black"></path><path d="M19.948 71.656v0c1.063-1.871 2.388-3.299 3.975-4.285 1.587-0.986 3.297-1.486 5.131-1.502 1.834-0.015 3.665 0.497 5.494 1.537v0c1.823 1.036 3.204 2.35 4.141 3.94 0.937 1.59 1.388 3.319 1.352 5.186-0.035 1.868-0.585 3.737-1.648 5.608v0c-1.063 1.871-2.39 3.302-3.98 4.294-1.593 0.998-3.313 1.501-5.158 1.509-1.846 0.008-3.68-0.506-5.504-1.542v0c-1.829-1.04-3.207-2.351-4.132-3.935-0.925-1.583-1.367-3.315-1.324-5.194 0.039-1.874 0.59-3.746 1.653-5.616zM23.127 73.463v0c-0.623 1.095-0.915 2.21-0.878 3.343 0.034 1.139 0.374 2.202 1.02 3.188 0.646 0.986 1.564 1.817 2.754 2.493v0c1.208 0.687 2.4 1.055 3.578 1.106 1.178 0.051 2.265-0.201 3.26-0.755 0.993-0.548 1.801-1.369 2.424-2.465v0c0.623-1.095 0.914-2.207 0.873-3.334-0.041-1.128-0.384-2.184-1.03-3.17-0.646-0.986-1.573-1.822-2.78-2.509v0c-1.19-0.676-2.374-1.04-3.552-1.09-1.178-0.051-2.261 0.195-3.25 0.737-0.99 0.542-1.796 1.361-2.419 2.456z" fill="black"></path><path d="M34.08 51.738l8.868 7.812c1.221 1.076 2.467 1.593 3.739 1.551 1.272-0.032 2.41-0.618 3.413-1.758v0c1.162-1.391 1.595-2.892 1.3-4.504-0.3-1.607-1.16-3.036-2.58-4.288v0l0.803-0.912c1.932 1.702 3.253 3.338 3.966 4.909 0.717 1.576 0.919 3.088 0.605 4.536-0.318 1.453-1.059 2.856-2.223 4.208v0c-1.058 1.201-2.21 2.014-3.457 2.441-1.247 0.426-2.528 0.469-3.842 0.128-1.314-0.332-2.592-1.045-3.834-2.139v0l-9.75-8.589zM56.799 57.58l-15.69-13.821 2.991-3.396 15.69 13.822z" fill="black"></path><path d="M62.258 25.674l2.5 3.244c-1.236 0.85-2.105 1.842-2.606 2.976-0.501 1.134-0.664 2.296-0.487 3.484 0.171 1.192 0.672 2.328 1.504 3.407v0l-1.089 0.645c-1.426-1.85-2.358-3.616-2.796-5.299-0.438-1.683-0.401-3.247 0.112-4.691 0.516-1.438 1.47-2.694 2.862-3.766zM65.798 49.54l-12.767-16.56 3.584-2.763 12.766 16.56z" fill="black"></path><path d="M93.161 32.987l-5.472-10.464c-0.754-1.442-1.743-2.37-2.965-2.784-1.223-0.413-2.531-0.256-3.925 0.474v0c-1.641 0.889-2.634 2.149-2.979 3.782-0.345 1.633-0.074 3.297 0.812 4.993v0l-1.113 0.582c-1.205-2.305-1.847-4.325-1.924-6.06-0.077-1.735 0.314-3.234 1.175-4.499 0.86-1.264 2.105-2.323 3.735-3.175v0c1.442-0.754 2.834-1.113 4.174-1.076 1.338 0.046 2.558 0.453 3.659 1.222 1.095 0.772 2.033 1.903 2.812 3.394v0l6.021 11.514zM79.42 40.172l-9.689-18.53 4.01-2.096 9.689 18.529z" fill="black"></path><path d="M102.188 17.221l12.386-3.222c-0.349-1.126-0.862-2.031-1.539-2.713-0.675-0.676-1.492-1.125-2.451-1.347-0.954-0.23-1.974-0.204-3.061 0.079v0c-1.219 0.317-2.207 0.873-2.965 1.668-0.757 0.795-1.259 1.759-1.506 2.893-0.247 1.134-0.195 2.373 0.154 3.717v0c0.377 1.45 0.978 2.638 1.803 3.563 0.818 0.927 1.795 1.556 2.929 1.888 1.126 0.326 2.325 0.324 3.597-0.007v0c2.261-0.588 3.957-1.884 5.09-3.889v0l2.93 1.729c-0.706 1.345-1.692 2.502-2.96 3.472-1.269 0.963-2.78 1.673-4.534 2.129v0c-2.083 0.542-4.011 0.582-5.784 0.122-1.773-0.46-3.291-1.346-4.554-2.657-1.263-1.311-2.158-2.981-2.686-5.012v0c-0.53-2.036-0.563-3.935-0.099-5.695 0.464-1.76 1.358-3.273 2.682-4.539 1.324-1.266 2.988-2.174 4.991-2.724v0c2.386-0.621 4.43-0.632 6.135-0.033 1.699 0.607 3.086 1.72 4.161 3.34 1.067 1.615 1.829 3.665 2.286 6.15v0l-16.193 4.212z" fill="black"></path><path d="M143.559 2.491l-8.358 24.298c-0.575 1.63-1.421 2.888-2.536 3.774-1.109 0.879-2.453 1.357-4.031 1.434v0c-0.939 0.046-1.803-0.055-2.592-0.303-0.79-0.255-1.566-0.653-2.329-1.195v0l1.766-3.431c0.979 0.634 1.9 0.93 2.764 0.888v0c0.68-0.033 1.286-0.26 1.817-0.681 0.532-0.421 0.948-1.045 1.249-1.871v0l0.634-1.688-9.657-20.188 4.673-0.228 7.041 15.826 5.039-16.414z" fill="black"></path><path d="M189.41 8.217l-3.359 2.412c-0.76-1.235-1.746-2.304-2.959-3.208-1.221-0.899-2.53-1.531-3.926-1.898v0c-1.37-0.36-2.704-0.44-4.004-0.24-1.299 0.201-2.51 0.629-3.633 1.284-1.123 0.655-2.086 1.507-2.89 2.556-0.804 1.049-1.386 2.258-1.746 3.629v0c-0.36 1.37-0.45 2.716-0.27 4.037 0.179 1.329 0.595 2.558 1.249 3.688 0.652 1.136 1.501 2.113 2.546 2.929 1.046 0.817 2.253 1.406 3.623 1.766v0c1.245 0.327 2.599 0.412 4.062 0.255 1.47-0.156 2.852-0.524 4.147-1.106v0l1.767 3.802c-1.069 0.451-2.25 0.792-3.543 1.023-1.299 0.229-2.61 0.327-3.933 0.296-1.321-0.038-2.591-0.217-3.809-0.537v0c-1.976-0.52-3.718-1.351-5.227-2.494-1.502-1.141-2.729-2.503-3.68-4.083-0.957-1.582-1.573-3.297-1.847-5.144-0.273-1.853-0.159-3.732 0.341-5.635v0c0.501-1.903 1.329-3.58 2.484-5.029 1.154-1.443 2.54-2.617 4.158-3.522 1.625-0.904 3.397-1.469 5.316-1.697 1.919-0.228 3.879-0.078 5.881 0.448v0c1.271 0.334 2.483 0.815 3.635 1.442 1.15 0.633 2.212 1.374 3.186 2.221 0.966 0.853 1.776 1.787 2.431 2.805zM180.095 27.092l2.582-9.82 3.922 1.032-2.582 9.819z" fill="black"></path><path d="M196.32 24.56l11.292 6.024c0.506-1.065 0.742-2.078 0.707-3.038-0.039-0.955-0.335-1.838-0.89-2.651-0.545-0.816-1.313-1.488-2.305-2.017v0c-1.112-0.593-2.215-0.854-3.31-0.782-1.096 0.072-2.118 0.441-3.068 1.107-0.95 0.666-1.752 1.613-2.406 2.838v0c-0.705 1.322-1.068 2.602-1.089 3.842-0.027 1.236 0.265 2.36 0.875 3.373 0.607 1.003 1.491 1.814 2.651 2.432v0c2.061 1.099 4.187 1.296 6.377 0.589v0l0.983 3.257c-1.43 0.511-2.94 0.693-4.529 0.547-1.586-0.152-3.179-0.654-4.777-1.506v0c-1.899-1.013-3.344-2.289-4.336-3.83-0.992-1.54-1.508-3.22-1.548-5.04-0.04-1.82 0.433-3.655 1.42-5.506v0c0.99-1.857 2.253-3.275 3.787-4.255 1.534-0.98 3.217-1.487 5.048-1.52 1.832-0.034 3.67 0.426 5.516 1.379v0c2.175 1.16 3.686 2.538 4.534 4.132 0.838 1.597 1.104 3.356 0.797 5.277-0.309 1.911-1.138 3.935-2.486 6.071v0l-14.763-7.875z" fill="black"></path><path d="M221.701 56.328l7.523-9.101c1.037-1.254 1.509-2.525 1.416-3.813-0.093-1.287-0.746-2.432-1.959-3.435v0c-1.456-1.168-3.003-1.594-4.642-1.279-1.639 0.315-3.068 1.21-4.286 2.686v0l-0.969-0.801c1.657-2.005 3.271-3.38 4.84-4.123 1.569-0.744 3.103-0.965 4.602-0.662 1.499 0.303 2.957 1.04 4.375 2.211v0c1.254 1.037 2.125 2.18 2.611 3.43 0.477 1.251 0.574 2.533 0.293 3.847-0.287 1.309-0.966 2.612-2.038 3.908v0l-8.278 10.015zM209.749 46.449l13.322-16.116 3.488 2.882-13.322 16.117z" fill="black"></path><path d="M229.741 64.82l15.834-13.657 2.929 3.396-15.834 13.657zM253.564 47.226v0c0.498 0.578 0.719 1.219 0.662 1.925-0.047 0.706-0.36 1.309-0.937 1.806v0c-0.552 0.476-1.188 0.692-1.909 0.649-0.711-0.043-1.316-0.353-1.815-0.931v0c-0.48-0.557-0.694-1.196-0.641-1.916 0.058-0.725 0.363-1.325 0.915-1.801v0c0.578-0.498 1.221-0.716 1.932-0.654 0.715 0.058 1.313 0.365 1.793 0.922z" fill="black"></path><path d="M256.96 67.132l-10.097 6.141c-1.391 0.846-2.255 1.882-2.594 3.107-0.348 1.224-0.127 2.484 0.662 3.782v0c0.982 1.523 2.286 2.383 3.914 2.582 1.623 0.192 3.244-0.203 4.861-1.188v0l0.631 1.039c-2.199 1.338-4.155 2.112-5.867 2.325-1.718 0.216-3.221-0.041-4.51-0.772-1.293-0.736-2.411-1.861-3.356-3.375v0c-0.832-1.367-1.265-2.71-1.301-4.027-0.036-1.317 0.305-2.553 1.022-3.706 0.708-1.156 1.769-2.164 3.183-3.023v0l11.101-6.752zM244.62 87.082l17.866-10.865 2.351 3.866-17.865 10.865z" fill="black"></path><path d="M271.938 104.44l-3.564-0.506c0.219-1.044 0.306-2.135 0.261-3.273-0.051-1.136-0.229-2.138-0.533-3.006v0c-0.295-0.842-0.698-1.48-1.211-1.914-0.513-0.434-1.142-0.52-1.887-0.259v0c-0.617 0.216-1.017 0.641-1.199 1.274-0.182 0.634-0.26 1.39-0.234 2.268 0.035 0.882 0.07 1.819 0.106 2.809 0.041 0.981-0.016 1.954-0.169 2.917-0.149 0.954-0.51 1.809-1.083 2.565-0.566 0.754-1.456 1.343-2.671 1.768v0c-1.337 0.468-2.557 0.498-3.659 0.09-1.102-0.408-2.061-1.115-2.874-2.121-0.808-1.009-1.445-2.182-1.914-3.519v0c-0.504-1.44-0.772-2.958-0.804-4.556-0.035-1.604 0.221-3.057 0.768-4.359v0l3.425 0.51c-0.461 1.135-0.69 2.399-0.686 3.79-0.005 1.387 0.179 2.614 0.553 3.681v0c0.216 0.617 0.49 1.142 0.821 1.574 0.329 0.426 0.704 0.724 1.125 0.895 0.42 0.17 0.891 0.164 1.411-0.018v0c0.694-0.243 1.154-0.682 1.379-1.316 0.225-0.634 0.328-1.392 0.309-2.273-0.013-0.883-0.048-1.816-0.103-2.799-0.056-0.983-0.007-1.938 0.144-2.865 0.143-0.93 0.488-1.769 1.035-2.516 0.547-0.747 1.415-1.328 2.604-1.744v0c1.337-0.468 2.541-0.5 3.613-0.096 1.072 0.404 1.993 1.088 2.764 2.052 0.773 0.971 1.379 2.086 1.82 3.345v0c0.434 1.241 0.695 2.542 0.782 3.904 0.087 1.362-0.023 2.594-0.329 3.698z" fill="black"></path><path d="M0 142.227c0-6.23 5.05-11.28 11.28-11.28 6.23 0 11.28 5.05 11.28 11.28 0 6.23-5.05 11.28-11.28 11.28-6.23 0-11.28-5.05-11.28-11.28z" fill="black"></path><path d="M257.161 142.227c0-6.23 5.05-11.28 11.279-11.28 6.23 0 11.28 5.05 11.28 11.28 0 6.23-5.05 11.28-11.28 11.28-6.23 0-11.28-5.05-11.279-11.28z" fill="black"></path></g><g id="SvgjsG1510"></g></svg></g></svg></g></svg></g></svg></g><defs><mask></mask></defs><mask><g id="SvgjsG1509"><svg viewBox="0 0 279.72 279.72" height="279.72" width="279.72"><g><svg viewBox="0 0 279.72 279.72" height="279.72" width="279.72"><g><svg viewBox="0 0 279.72 279.72" height="279.72" width="279.72"><g id="SvgjsG1508"><svg viewBox="0 0 279.72 279.72" height="279.72" width="279.72" id="SvgjsSvg1507"><g><svg viewBox="0 0 279.72 279.72" height="279.72" width="279.72"><g transform="matrix(1,0,0,1,73.92936372216631,73.92999766449647)"><svg viewBox="0 0 131.8612725556674 131.8600046710071" height="131.8600046710071" width="131.8612725556674"><g id="SvgjsG1506"><svg xmlns="http://www.w3.org/2000/svg" xmlns:xlink="http://www.w3.org/1999/xlink" version="1.1" x="0" y="0" viewBox="3 3 26.00025 26" enable-background="new 0 0 32 32" xml:space="preserve" height="131.8600046710071" width="131.8612725556674" class="icon-xg-0" data-fill-palette-color="accent" id="SvgjsSvg1505"><g fill="black"><path d="M26.414 22l2.293-2.293c0.391-0.391 0.391-1.023 0-1.414s-1.023-0.391-1.414 0L25 20.586l-2.293-2.293c-0.391-0.391-1.023-0.391-1.414 0s-0.391 1.023 0 1.414L23.586 22l-2.293 2.293c-0.391 0.391-0.391 1.023 0 1.414C21.488 25.902 21.744 26 22 26s0.512-0.098 0.707-0.293L25 23.414l2.293 2.293C27.488 25.902 27.744 26 28 26s0.512-0.098 0.707-0.293c0.391-0.391 0.391-1.023 0-1.414L26.414 22z" fill="black"></path><path d="M19 3c-2.206 0-4 1.794-4 4 0 0.552 0.448 1 1 1s1-0.448 1-1c0-1.103 0.897-2 2-2 0.553 0 1-0.448 1-1S19.553 3 19 3z" fill="black"></path><path d="M22 5c1.103 0 2 0.897 2 2 0 0.552 0.447 1 1 1s1-0.448 1-1c0-2.206-1.794-4-4-4-0.553 0-1 0.448-1 1S21.447 5 22 5z" fill="black"></path><path d="M16 24c-0.552 0-1 0.447-1 1 0 1.103-0.897 2-2 2-0.552 0-1 0.447-1 1s0.448 1 1 1c2.206 0 4-1.794 4-4C17 24.447 16.552 24 16 24z" fill="black"></path><path d="M10 27c-1.103 0-2-0.897-2-2 0-0.553-0.448-1-1-1s-1 0.447-1 1c0 2.206 1.794 4 4 4 0.552 0 1-0.447 1-1S10.552 27 10 27z" fill="black"></path><path d="M26 10c0-0.552-0.447-1-1-1s-1 0.448-1 1v2c0 0.552 0.447 1 1 1s1-0.448 1-1V10z" fill="black"></path><path d="M16 9c-0.552 0-1 0.448-1 1v2c0 0.552 0.448 1 1 1s1-0.448 1-1v-2C17 9.448 16.552 9 16 9z" fill="black"></path><path d="M16 19c-0.552 0-1 0.447-1 1v2c0 0.553 0.448 1 1 1s1-0.447 1-1v-2C17 19.447 16.552 19 16 19z" fill="black"></path><path d="M6 22c0 0.553 0.448 1 1 1s1-0.447 1-1v-2c0-0.553-0.448-1-1-1s-1 0.447-1 1V22z" fill="black"></path><path d="M7 18c0.552 0 1-0.447 1-1v-2c0-0.552-0.448-1-1-1s-1 0.448-1 1v2C6 17.553 6.448 18 7 18z" fill="black"></path><path d="M7 5C4.794 5 3 6.794 3 9s1.794 4 4 4 4-1.794 4-4S9.206 5 7 5zM7 11c-1.103 0-2-0.897-2-2s0.897-2 2-2 2 0.897 2 2S8.103 11 7 11z" fill="black"></path><path d="M16 14c-0.552 0-1 0.448-1 1v2c0 0.553 0.448 1 1 1s1-0.447 1-1v-2C17 14.448 16.552 14 16 14z" fill="black"></path><path d="M25 14c-0.553 0-1 0.448-1 1v2c0 0.553 0.447 1 1 1s1-0.447 1-1v-2C26 14.448 25.553 14 25 14z" fill="black"></path></g></svg></g></svg></g><g id="SvgjsG1504"><path d="M4.512 87.617l18.112 6.037c2.616 0.872 4.399 2.277 5.346 4.215 0.943 1.929 0.995 4.154 0.156 6.673v0c-0.523 1.57-1.33 2.891-2.42 3.964-1.09 1.072-2.382 1.902-3.876 2.487v0l-2.52-3.165c1.215-0.564 2.232-1.248 3.053-2.051 0.823-0.81 1.382-1.66 1.68-2.552v0c0.392-1.176 0.329-2.216-0.188-3.121-0.51-0.902-1.45-1.582-2.82-2.038v0l-14.236-4.745-3.013 9.042-3.77-1.257z" fill="black"></path><path d="M19.948 71.656v0c1.063-1.871 2.388-3.299 3.975-4.285 1.587-0.986 3.297-1.486 5.131-1.502 1.834-0.015 3.665 0.497 5.494 1.537v0c1.823 1.036 3.204 2.35 4.141 3.94 0.937 1.59 1.388 3.319 1.352 5.186-0.035 1.868-0.585 3.737-1.648 5.608v0c-1.063 1.871-2.39 3.302-3.98 4.294-1.593 0.998-3.313 1.501-5.158 1.509-1.846 0.008-3.68-0.506-5.504-1.542v0c-1.829-1.04-3.207-2.351-4.132-3.935-0.925-1.583-1.367-3.315-1.324-5.194 0.039-1.874 0.59-3.746 1.653-5.616zM23.127 73.463v0c-0.623 1.095-0.915 2.21-0.878 3.343 0.034 1.139 0.374 2.202 1.02 3.188 0.646 0.986 1.564 1.817 2.754 2.493v0c1.208 0.687 2.4 1.055 3.578 1.106 1.178 0.051 2.265-0.201 3.26-0.755 0.993-0.548 1.801-1.369 2.424-2.465v0c0.623-1.095 0.914-2.207 0.873-3.334-0.041-1.128-0.384-2.184-1.03-3.17-0.646-0.986-1.573-1.822-2.78-2.509v0c-1.19-0.676-2.374-1.04-3.552-1.09-1.178-0.051-2.261 0.195-3.25 0.737-0.99 0.542-1.796 1.361-2.419 2.456z" fill="black"></path><path d="M34.08 51.738l8.868 7.812c1.221 1.076 2.467 1.593 3.739 1.551 1.272-0.032 2.41-0.618 3.413-1.758v0c1.162-1.391 1.595-2.892 1.3-4.504-0.3-1.607-1.16-3.036-2.58-4.288v0l0.803-0.912c1.932 1.702 3.253 3.338 3.966 4.909 0.717 1.576 0.919 3.088 0.605 4.536-0.318 1.453-1.059 2.856-2.223 4.208v0c-1.058 1.201-2.21 2.014-3.457 2.441-1.247 0.426-2.528 0.469-3.842 0.128-1.314-0.332-2.592-1.045-3.834-2.139v0l-9.75-8.589zM56.799 57.58l-15.69-13.821 2.991-3.396 15.69 13.822z" fill="black"></path><path d="M62.258 25.674l2.5 3.244c-1.236 0.85-2.105 1.842-2.606 2.976-0.501 1.134-0.664 2.296-0.487 3.484 0.171 1.192 0.672 2.328 1.504 3.407v0l-1.089 0.645c-1.426-1.85-2.358-3.616-2.796-5.299-0.438-1.683-0.401-3.247 0.112-4.691 0.516-1.438 1.47-2.694 2.862-3.766zM65.798 49.54l-12.767-16.56 3.584-2.763 12.766 16.56z" fill="black"></path><path d="M93.161 32.987l-5.472-10.464c-0.754-1.442-1.743-2.37-2.965-2.784-1.223-0.413-2.531-0.256-3.925 0.474v0c-1.641 0.889-2.634 2.149-2.979 3.782-0.345 1.633-0.074 3.297 0.812 4.993v0l-1.113 0.582c-1.205-2.305-1.847-4.325-1.924-6.06-0.077-1.735 0.314-3.234 1.175-4.499 0.86-1.264 2.105-2.323 3.735-3.175v0c1.442-0.754 2.834-1.113 4.174-1.076 1.338 0.046 2.558 0.453 3.659 1.222 1.095 0.772 2.033 1.903 2.812 3.394v0l6.021 11.514zM79.42 40.172l-9.689-18.53 4.01-2.096 9.689 18.529z" fill="black"></path><path d="M102.188 17.221l12.386-3.222c-0.349-1.126-0.862-2.031-1.539-2.713-0.675-0.676-1.492-1.125-2.451-1.347-0.954-0.23-1.974-0.204-3.061 0.079v0c-1.219 0.317-2.207 0.873-2.965 1.668-0.757 0.795-1.259 1.759-1.506 2.893-0.247 1.134-0.195 2.373 0.154 3.717v0c0.377 1.45 0.978 2.638 1.803 3.563 0.818 0.927 1.795 1.556 2.929 1.888 1.126 0.326 2.325 0.324 3.597-0.007v0c2.261-0.588 3.957-1.884 5.09-3.889v0l2.93 1.729c-0.706 1.345-1.692 2.502-2.96 3.472-1.269 0.963-2.78 1.673-4.534 2.129v0c-2.083 0.542-4.011 0.582-5.784 0.122-1.773-0.46-3.291-1.346-4.554-2.657-1.263-1.311-2.158-2.981-2.686-5.012v0c-0.53-2.036-0.563-3.935-0.099-5.695 0.464-1.76 1.358-3.273 2.682-4.539 1.324-1.266 2.988-2.174 4.991-2.724v0c2.386-0.621 4.43-0.632 6.135-0.033 1.699 0.607 3.086 1.72 4.161 3.34 1.067 1.615 1.829 3.665 2.286 6.15v0l-16.193 4.212z" fill="black"></path><path d="M143.559 2.491l-8.358 24.298c-0.575 1.63-1.421 2.888-2.536 3.774-1.109 0.879-2.453 1.357-4.031 1.434v0c-0.939 0.046-1.803-0.055-2.592-0.303-0.79-0.255-1.566-0.653-2.329-1.195v0l1.766-3.431c0.979 0.634 1.9 0.93 2.764 0.888v0c0.68-0.033 1.286-0.26 1.817-0.681 0.532-0.421 0.948-1.045 1.249-1.871v0l0.634-1.688-9.657-20.188 4.673-0.228 7.041 15.826 5.039-16.414z" fill="black"></path><path d="M189.41 8.217l-3.359 2.412c-0.76-1.235-1.746-2.304-2.959-3.208-1.221-0.899-2.53-1.531-3.926-1.898v0c-1.37-0.36-2.704-0.44-4.004-0.24-1.299 0.201-2.51 0.629-3.633 1.284-1.123 0.655-2.086 1.507-2.89 2.556-0.804 1.049-1.386 2.258-1.746 3.629v0c-0.36 1.37-0.45 2.716-0.27 4.037 0.179 1.329 0.595 2.558 1.249 3.688 0.652 1.136 1.501 2.113 2.546 2.929 1.046 0.817 2.253 1.406 3.623 1.766v0c1.245 0.327 2.599 0.412 4.062 0.255 1.47-0.156 2.852-0.524 4.147-1.106v0l1.767 3.802c-1.069 0.451-2.25 0.792-3.543 1.023-1.299 0.229-2.61 0.327-3.933 0.296-1.321-0.038-2.591-0.217-3.809-0.537v0c-1.976-0.52-3.718-1.351-5.227-2.494-1.502-1.141-2.729-2.503-3.68-4.083-0.957-1.582-1.573-3.297-1.847-5.144-0.273-1.853-0.159-3.732 0.341-5.635v0c0.501-1.903 1.329-3.58 2.484-5.029 1.154-1.443 2.54-2.617 4.158-3.522 1.625-0.904 3.397-1.469 5.316-1.697 1.919-0.228 3.879-0.078 5.881 0.448v0c1.271 0.334 2.483 0.815 3.635 1.442 1.15 0.633 2.212 1.374 3.186 2.221 0.966 0.853 1.776 1.787 2.431 2.805zM180.095 27.092l2.582-9.82 3.922 1.032-2.582 9.819z" fill="black"></path><path d="M196.32 24.56l11.292 6.024c0.506-1.065 0.742-2.078 0.707-3.038-0.039-0.955-0.335-1.838-0.89-2.651-0.545-0.816-1.313-1.488-2.305-2.017v0c-1.112-0.593-2.215-0.854-3.31-0.782-1.096 0.072-2.118 0.441-3.068 1.107-0.95 0.666-1.752 1.613-2.406 2.838v0c-0.705 1.322-1.068 2.602-1.089 3.842-0.027 1.236 0.265 2.36 0.875 3.373 0.607 1.003 1.491 1.814 2.651 2.432v0c2.061 1.099 4.187 1.296 6.377 0.589v0l0.983 3.257c-1.43 0.511-2.94 0.693-4.529 0.547-1.586-0.152-3.179-0.654-4.777-1.506v0c-1.899-1.013-3.344-2.289-4.336-3.83-0.992-1.54-1.508-3.22-1.548-5.04-0.04-1.82 0.433-3.655 1.42-5.506v0c0.99-1.857 2.253-3.275 3.787-4.255 1.534-0.98 3.217-1.487 5.048-1.52 1.832-0.034 3.67 0.426 5.516 1.379v0c2.175 1.16 3.686 2.538 4.534 4.132 0.838 1.597 1.104 3.356 0.797 5.277-0.309 1.911-1.138 3.935-2.486 6.071v0l-14.763-7.875z" fill="black"></path><path d="M221.701 56.328l7.523-9.101c1.037-1.254 1.509-2.525 1.416-3.813-0.093-1.287-0.746-2.432-1.959-3.435v0c-1.456-1.168-3.003-1.594-4.642-1.279-1.639 0.315-3.068 1.21-4.286 2.686v0l-0.969-0.801c1.657-2.005 3.271-3.38 4.84-4.123 1.569-0.744 3.103-0.965 4.602-0.662 1.499 0.303 2.957 1.04 4.375 2.211v0c1.254 1.037 2.125 2.18 2.611 3.43 0.477 1.251 0.574 2.533 0.293 3.847-0.287 1.309-0.966 2.612-2.038 3.908v0l-8.278 10.015zM209.749 46.449l13.322-16.116 3.488 2.882-13.322 16.117z" fill="black"></path><path d="M229.741 64.82l15.834-13.657 2.929 3.396-15.834 13.657zM253.564 47.226v0c0.498 0.578 0.719 1.219 0.662 1.925-0.047 0.706-0.36 1.309-0.937 1.806v0c-0.552 0.476-1.188 0.692-1.909 0.649-0.711-0.043-1.316-0.353-1.815-0.931v0c-0.48-0.557-0.694-1.196-0.641-1.916 0.058-0.725 0.363-1.325 0.915-1.801v0c0.578-0.498 1.221-0.716 1.932-0.654 0.715 0.058 1.313 0.365 1.793 0.922z" fill="black"></path><path d="M256.96 67.132l-10.097 6.141c-1.391 0.846-2.255 1.882-2.594 3.107-0.348 1.224-0.127 2.484 0.662 3.782v0c0.982 1.523 2.286 2.383 3.914 2.582 1.623 0.192 3.244-0.203 4.861-1.188v0l0.631 1.039c-2.199 1.338-4.155 2.112-5.867 2.325-1.718 0.216-3.221-0.041-4.51-0.772-1.293-0.736-2.411-1.861-3.356-3.375v0c-0.832-1.367-1.265-2.71-1.301-4.027-0.036-1.317 0.305-2.553 1.022-3.706 0.708-1.156 1.769-2.164 3.183-3.023v0l11.101-6.752zM244.62 87.082l17.866-10.865 2.351 3.866-17.865 10.865z" fill="black"></path><path d="M271.938 104.44l-3.564-0.506c0.219-1.044 0.306-2.135 0.261-3.273-0.051-1.136-0.229-2.138-0.533-3.006v0c-0.295-0.842-0.698-1.48-1.211-1.914-0.513-0.434-1.142-0.52-1.887-0.259v0c-0.617 0.216-1.017 0.641-1.199 1.274-0.182 0.634-0.26 1.39-0.234 2.268 0.035 0.882 0.07 1.819 0.106 2.809 0.041 0.981-0.016 1.954-0.169 2.917-0.149 0.954-0.51 1.809-1.083 2.565-0.566 0.754-1.456 1.343-2.671 1.768v0c-1.337 0.468-2.557 0.498-3.659 0.09-1.102-0.408-2.061-1.115-2.874-2.121-0.808-1.009-1.445-2.182-1.914-3.519v0c-0.504-1.44-0.772-2.958-0.804-4.556-0.035-1.604 0.221-3.057 0.768-4.359v0l3.425 0.51c-0.461 1.135-0.69 2.399-0.686 3.79-0.005 1.387 0.179 2.614 0.553 3.681v0c0.216 0.617 0.49 1.142 0.821 1.574 0.329 0.426 0.704 0.724 1.125 0.895 0.42 0.17 0.891 0.164 1.411-0.018v0c0.694-0.243 1.154-0.682 1.379-1.316 0.225-0.634 0.328-1.392 0.309-2.273-0.013-0.883-0.048-1.816-0.103-2.799-0.056-0.983-0.007-1.938 0.144-2.865 0.143-0.93 0.488-1.769 1.035-2.516 0.547-0.747 1.415-1.328 2.604-1.744v0c1.337-0.468 2.541-0.5 3.613-0.096 1.072 0.404 1.993 1.088 2.764 2.052 0.773 0.971 1.379 2.086 1.82 3.345v0c0.434 1.241 0.695 2.542 0.782 3.904 0.087 1.362-0.023 2.594-0.329 3.698z" fill="black"></path><path d="M0 142.227c0-6.23 5.05-11.28 11.28-11.28 6.23 0 11.28 5.05 11.28 11.28 0 6.23-5.05 11.28-11.28 11.28-6.23 0-11.28-5.05-11.28-11.28z" fill="black"></path><path d="M257.161 142.227c0-6.23 5.05-11.28 11.279-11.28 6.23 0 11.28 5.05 11.28 11.28 0 6.23-5.05 11.28-11.28 11.28-6.23 0-11.28-5.05-11.279-11.28z" fill="black"></path></g><g id="SvgjsG1503"><path d="M9.45 179.813l17.589-4.843 0.816 2.964-17.589 4.843z" fill="black"></path><path d="M29.799 186.389l-11.903 4.564c-0.699 0.268-1.129 0.575-1.288 0.92-0.155 0.337-0.149 0.724 0.019 1.164v0c0.112 0.292 0.277 0.579 0.495 0.86 0.221 0.273 0.499 0.56 0.833 0.862v0l-1.751 1.481c-0.498-0.385-0.935-0.812-1.311-1.28-0.376-0.468-0.671-0.979-0.883-1.532v0c-0.249-0.649-0.352-1.298-0.31-1.949 0.036-0.648 0.267-1.244 0.693-1.787 0.426-0.543 1.078-0.982 1.956-1.319v0l12.389-4.75zM22.504 183.913l2.003-0.768 3.23 8.421-2.003 0.768z" fill="black"></path><path d="M17.376 200.952l12.532-5.876 1.261 2.691-12.532 5.876zM35.706 193.993v0c0.214 0.456 0.244 0.905 0.09 1.346-0.163 0.438-0.473 0.763-0.93 0.977v0c-0.438 0.205-0.88 0.232-1.327 0.081-0.45-0.158-0.782-0.465-0.996-0.921v0c-0.205-0.438-0.226-0.883-0.062-1.336 0.164-0.453 0.465-0.782 0.902-0.987v0c0.456-0.214 0.908-0.238 1.355-0.071 0.441 0.17 0.763 0.473 0.968 0.911z" fill="black"></path><path d="M27.247 218.304l6.687-4.064c0.919-0.559 1.489-1.248 1.708-2.066 0.222-0.828 0.062-1.687-0.478-2.578v0c-0.652-1.046-1.528-1.649-2.63-1.809-1.092-0.157-2.179 0.093-3.261 0.751v0l-0.435-0.716c1.472-0.895 2.781-1.403 3.926-1.525 1.141-0.128 2.149 0.068 3.024 0.589 0.871 0.515 1.622 1.293 2.255 2.335v0c0.559 0.919 0.855 1.819 0.888 2.7 0.031 0.89-0.185 1.714-0.648 2.474-0.463 0.759-1.172 1.429-2.126 2.009v0l-7.35 4.466zM21.916 209.531l11.828-7.188 1.554 2.558-11.828 7.188z" fill="black"></path><path d="M39.714 221.845l5.414 6.512c0.58-0.527 0.978-1.087 1.192-1.682 0.214-0.594 0.254-1.212 0.12-1.853-0.13-0.636-0.435-1.242-0.914-1.818v0c-0.531-0.639-1.141-1.075-1.83-1.307-0.685-0.227-1.403-0.255-2.154-0.082-0.751 0.173-1.48 0.553-2.187 1.14v0c-0.765 0.636-1.309 1.328-1.635 2.077-0.321 0.754-0.42 1.518-0.298 2.293 0.118 0.77 0.453 1.488 1.006 2.153v0c0.993 1.194 2.248 1.846 3.766 1.957v0l-0.206 2.244c-1.006-0.049-1.975-0.315-2.908-0.797-0.937-0.488-1.788-1.192-2.555-2.114v0c-0.914-1.1-1.481-2.245-1.7-3.435-0.229-1.191-0.127-2.352 0.306-3.483 0.428-1.126 1.176-2.133 2.244-3.021v0c1.068-0.888 2.198-1.442 3.387-1.661 1.185-0.215 2.345-0.103 3.48 0.335 1.13 0.433 2.141 1.174 3.031 2.223v0c1.045 1.257 1.626 2.478 1.744 3.664 0.122 1.191-0.152 2.336-0.823 3.434-0.666 1.094-1.68 2.128-3.042 3.101v0l-7.079-8.515z" fill="black"></path><path d="M59.845 234.663l-1.88 1.947c-0.672-0.725-1.405-1.196-2.199-1.414-0.789-0.222-1.567-0.221-2.334 0.004-0.762 0.23-1.457 0.671-2.086 1.322v0l-0.532-0.655c1.074-1.112 2.144-1.891 3.211-2.339 1.061-0.452 2.087-0.578 3.078-0.378 0.991 0.2 1.905 0.704 2.742 1.513zM44.552 239.277l9.616-9.955 2.153 2.079-9.616 9.955z" fill="black"></path><path d="M64.576 248.095l-3.282-2.536c-0.771-0.595-1.433-0.918-1.988-0.969-0.551-0.056-1.032 0.183-1.445 0.717v0c-0.396 0.512-0.521 1.064-0.377 1.658 0.149 0.597 0.553 1.15 1.21 1.658v0c0.593 0.458 1.203 0.766 1.83 0.923 0.622 0.153 1.205 0.161 1.751 0.024 0.555-0.139 1.007-0.423 1.354-0.851v0l-1.09 2.346c-0.899 0.45-1.836 0.582-2.811 0.397-0.979-0.18-1.957-0.647-2.932-1.401v0c-0.787-0.608-1.352-1.286-1.695-2.033-0.339-0.753-0.47-1.508-0.393-2.266 0.087-0.759 0.374-1.453 0.862-2.084v0c0.766-0.991 1.739-1.505 2.919-1.539 1.18-0.035 2.434 0.453 3.763 1.462v0l3.629 2.805zM60.506 252.76l5.356-6.963c0.554-0.717 0.764-1.445 0.63-2.186-0.134-0.74-0.634-1.446-1.502-2.116v0c-0.523-0.404-1.128-0.717-1.817-0.939-0.694-0.227-1.46-0.366-2.297-0.419v0l0.211-2.278c0.752 0.074 1.434 0.183 2.044 0.328 0.62 0.144 1.228 0.36 1.824 0.648 0.601 0.292 1.251 0.709 1.951 1.25v0c1.417 1.095 2.246 2.278 2.487 3.548 0.235 1.266-0.101 2.503-1.01 3.712v0l-5.549 7.214z" fill="black"></path><path d="M82.098 250.087l-1.403 2.315c-0.816-0.558-1.635-0.856-2.458-0.892-0.819-0.042-1.577 0.131-2.274 0.52-0.692 0.393-1.273 0.976-1.742 1.751v0l-0.664-0.521c0.801-1.322 1.672-2.319 2.613-2.991 0.935-0.675 1.908-1.026 2.919-1.05 1.01-0.025 2.013 0.265 3.009 0.868zM68.205 257.971l7.175-11.837 2.559 1.552-7.174 11.836z" fill="black"></path><path d="M95.696 256.39l-12.305 11.741c-0.832 0.788-1.711 1.27-2.637 1.445-0.923 0.185-1.858 0.061-2.806-0.372v0c-0.57-0.26-1.047-0.583-1.432-0.969-0.392-0.389-0.728-0.857-1.01-1.405v0l2.083-1.485c0.383 0.669 0.835 1.123 1.355 1.36v0c0.409 0.187 0.834 0.239 1.276 0.156 0.445-0.089 0.881-0.331 1.309-0.727v0l0.882-0.798 0.454-14.808 2.825 1.29-0.669 11.442 7.943-8.118z" fill="black"></path><path d="M107.31 255.566l7.064 1.729c2.229 0.546 3.827 1.494 4.793 2.845 0.965 1.358 1.214 2.989 0.747 4.895v0c-0.487 1.991-1.478 3.389-2.972 4.194-1.494 0.805-3.356 0.935-5.585 0.389v0l-5.397-1.321 1.64-0.987-1.642 6.707-2.986-0.731zM106.584 265.747l5.269 1.289c1.369 0.335 2.498 0.292 3.386-0.128 0.888-0.421 1.484-1.253 1.789-2.496v0c0.295-1.204 0.143-2.187-0.456-2.951-0.598-0.763-1.582-1.313-2.951-1.648v0l-5.269-1.289 1.64-0.987-2.409 9.842z" fill="black"></path><path d="M122.297 277.375l2.626-19.168 2.965 0.406-2.626 19.168z" fill="black"></path><path d="M140.978 272.274l-4.145-0.115c-0.973-0.027-1.699 0.103-2.177 0.389-0.478 0.28-0.726 0.757-0.745 1.431v0c-0.018 0.647 0.206 1.167 0.672 1.561 0.473 0.395 1.124 0.603 1.955 0.627v0c0.749 0.021 1.423-0.09 2.022-0.333 0.593-0.242 1.069-0.58 1.428-1.013 0.366-0.439 0.564-0.935 0.593-1.485v0l0.502 2.537c-0.461 0.893-1.14 1.552-2.037 1.978-0.898 0.432-1.962 0.63-3.195 0.596v0c-0.994-0.028-1.85-0.242-2.567-0.644-0.718-0.408-1.268-0.941-1.652-1.598-0.377-0.664-0.554-1.395-0.532-2.192v0c0.035-1.253 0.518-2.241 1.451-2.964 0.933-0.724 2.233-1.069 3.902-1.036v0l4.584 0.126zM140.44 278.441l0.222-8.782c0.025-0.905-0.235-1.618-0.778-2.137-0.544-0.519-1.364-0.794-2.461-0.824v0c-0.66-0.018-1.334 0.086-2.021 0.312-0.694 0.226-1.395 0.564-2.103 1.015v0l-1.172-1.964c0.651-0.384 1.266-0.697 1.845-0.94 0.586-0.249 1.204-0.433 1.855-0.552 0.657-0.118 1.428-0.165 2.313-0.14v0c1.79 0.05 3.157 0.517 4.1 1.401 0.936 0.884 1.393 2.082 1.372 3.594v0l-0.232 9.098z" fill="black"></path><path d="M160.08 276.961l-0.832-7.78c-0.114-1.07-0.495-1.878-1.143-2.426-0.655-0.553-1.5-0.774-2.536-0.663v0c-1.224 0.145-2.143 0.681-2.756 1.609-0.607 0.921-0.843 2.011-0.708 3.271v0l-0.833 0.089c-0.183-1.713-0.086-3.114 0.29-4.202 0.37-1.087 0.977-1.916 1.82-2.485 0.836-0.569 1.861-0.918 3.072-1.048v0c1.07-0.114 2.01 0.001 2.821 0.346 0.818 0.351 1.473 0.897 1.963 1.639 0.49 0.742 0.795 1.668 0.914 2.779v0l0.914 8.552zM149.872 278.053l-1.472-13.763 2.976-0.318 1.472 13.762z" fill="black"></path><path d="M179.428 272.572l-1.96-7.575c-0.27-1.042-0.764-1.786-1.485-2.232-0.729-0.452-1.598-0.547-2.606-0.286v0c-1.19 0.322-2.02 0.987-2.491 1.995-0.466 1-0.54 2.113-0.223 3.339v0l-0.811 0.21c-0.432-1.668-0.54-3.068-0.327-4.2 0.207-1.13 0.686-2.038 1.437-2.724 0.744-0.685 1.706-1.18 2.887-1.486v0c1.042-0.27 1.989-0.293 2.841-0.07 0.861 0.227 1.588 0.672 2.181 1.335 0.593 0.662 1.03 1.534 1.31 2.615v0l2.154 8.327zM169.489 275.144l-3.467-13.4 2.898-0.75 3.467 13.4z" fill="black"></path><path d="M186.417 261.657l7.796-3.306c-0.337-0.708-0.759-1.25-1.267-1.627-0.507-0.377-1.087-0.593-1.739-0.649-0.646-0.059-1.314 0.058-2.004 0.351v0c-0.765 0.324-1.358 0.783-1.78 1.376-0.415 0.59-0.649 1.27-0.7 2.038-0.051 0.769 0.103 1.576 0.461 2.423v0c0.388 0.915 0.894 1.637 1.517 2.164 0.629 0.525 1.333 0.84 2.11 0.947 0.771 0.109 1.555-0.005 2.352-0.342v0c1.429-0.606 2.416-1.62 2.959-3.042v0l2.09 0.845c-0.337 0.949-0.871 1.801-1.602 2.555-0.737 0.756-1.657 1.368-2.761 1.836v0c-1.317 0.558-2.576 0.771-3.78 0.637-1.207-0.124-2.289-0.557-3.246-1.297-0.955-0.734-1.703-1.741-2.246-3.02v0c-0.542-1.279-0.747-2.52-0.613-3.723 0.136-1.197 0.577-2.275 1.324-3.235 0.74-0.958 1.741-1.711 3.003-2.261v0c1.505-0.638 2.842-0.843 4.011-0.614 1.176 0.226 2.193 0.819 3.051 1.78 0.856 0.954 1.553 2.223 2.092 3.806v0l-10.195 4.323z" fill="black"></path><path d="M204.498 246.079l1.321 2.363c-0.888 0.434-1.551 1-1.988 1.697-0.441 0.691-0.664 1.436-0.669 2.235 0 0.796 0.222 1.589 0.663 2.38v0l-0.78 0.319c-0.755-1.349-1.192-2.599-1.313-3.748-0.126-1.147 0.049-2.165 0.526-3.057 0.477-0.891 1.224-1.621 2.24-2.189zM204.502 262.053l-6.756-12.08 2.612-1.461 6.756 12.08z" fill="black"></path><path d="M222.996 249.935l-9.17-11.488c-0.684-0.857-1.066-1.707-1.146-2.549-0.081-0.833 0.06-1.612 0.423-2.337 0.361-0.715 0.853-1.322 1.476-1.818v0c0.325-0.259 0.689-0.48 1.091-0.663 0.402-0.173 0.806-0.3 1.213-0.379v0l0.941 2.177c-0.255 0.073-0.532 0.168-0.832 0.284-0.294 0.112-0.563 0.266-0.807 0.462v0c-0.261 0.208-0.463 0.452-0.606 0.731-0.143 0.28-0.192 0.584-0.146 0.914 0.044 0.339 0.207 0.685 0.487 1.036v0l9.399 11.776zM214.577 242.318l-1.339-1.676 6.587-5.258 1.338 1.677z" fill="black"></path><path d="M225.78 228.729v0c1.013-1 2.113-1.674 3.299-2.023 1.187-0.339 2.367-0.346 3.539-0.021 1.173 0.316 2.247 0.968 3.224 1.956v0c0.976 0.989 1.619 2.076 1.929 3.263 0.315 1.182 0.293 2.361-0.065 3.539-0.359 1.187-1.045 2.281-2.058 3.28v0c-1.013 1-2.117 1.674-3.314 2.023-1.192 0.354-2.376 0.365-3.554 0.036-1.183-0.325-2.262-0.982-3.238-1.971v0c-0.976-0.989-1.614-2.071-1.915-3.248-0.31-1.177-0.284-2.361 0.08-3.554 0.369-1.187 1.059-2.281 2.073-3.28zM227.481 230.452v0c-0.596 0.589-0.985 1.246-1.169 1.971-0.183 0.736-0.156 1.475 0.08 2.218 0.236 0.743 0.672 1.437 1.309 2.082v0c0.646 0.654 1.339 1.104 2.079 1.349 0.74 0.245 1.479 0.281 2.216 0.108 0.728-0.174 1.39-0.555 1.987-1.143v0c0.591-0.584 0.976-1.236 1.153-1.957 0.178-0.731 0.149-1.468-0.087-2.211-0.236-0.743-0.677-1.442-1.323-2.096v0c-0.636-0.644-1.325-1.089-2.064-1.335-0.74-0.245-1.477-0.284-2.21-0.115-0.723 0.169-1.381 0.545-1.971 1.129z" fill="black"></path><path d="M238.256 214.557l2.107 1.699c-0.662 0.734-1.066 1.506-1.212 2.316-0.151 0.806-0.08 1.58 0.212 2.324 0.297 0.738 0.798 1.392 1.503 1.96v0l-0.605 0.588c-1.203-0.971-2.075-1.967-2.616-2.989-0.545-1.017-0.762-2.027-0.651-3.032 0.11-1.005 0.531-1.96 1.262-2.866zM244.215 229.377l-10.773-8.69 1.879-2.329 10.774 8.689z" fill="black"></path><path d="M255.626 213.397l-12.532-15.511 1.446-2.806 19.872 1.263-1.507 2.924-16.376-1.289 10.562 12.576zM253.714 207.896l-2.324-1.198 5.001-9.707 2.324 1.198z" fill="black"></path><path d="M266.16 192.084l-17.989-7.121 1.102-2.783 17.989 7.121z" fill="black"></path><path d="M269.362 182.874l-18.454-5.809 0.899-2.855 18.454 5.809z" fill="black"></path></g></svg></g></svg></g></svg></g></svg></g><defs><mask></mask></defs></svg><rect width="279.72" height="279.72" fill="black" stroke="none" visibility="hidden"></rect></g></mask></svg><rect width="279.72" height="279.72" fill="black" stroke="none" visibility="hidden"></rect></g></mask><linearGradient x1="0.054" x2="0.941" y1="0.5" y2="0.5" id="c440da25-8f0d-4339-bf53-8104f9bf40b3"><stop stop-color="#8c8c8c" offset="0"></stop><stop stop-color="#e3e4e5" offset="0.498"></stop><stop stop-color="#8c8c8c" offset="1"></stop></linearGradient><rect width="279.72" height="279.72" fill="#ffffff" mask="url(#87acaa13-96e1-4583-aa94-8e51da340402)" data-fill-palette-color="accent"></rect></svg><rect width="279.72" height="279.72" fill="none" stroke="none" visibility="hidden"></rect></g></svg></g></svg>